<svg 
 xmlns="http://www.w3.org/2000/svg"
 xmlns:xlink="http://www.w3.org/1999/xlink"
 width="18px" height="18px">
<path fill-rule="evenodd"  fill="rgb(229, 231, 232)"
 d="M9.000,0.000 C13.971,0.000 18.000,4.029 18.000,9.000 C18.000,13.971 13.971,18.000 9.000,18.000 C4.030,18.000 0.000,13.971 0.000,9.000 C0.000,4.029 4.030,0.000 9.000,0.000 Z"/>
<path fill-rule="evenodd"  fill="rgb(30, 30, 30)"
 d="M9.862,10.080 C9.946,9.904 10.162,9.672 10.510,9.383 C11.182,8.824 11.620,8.383 11.825,8.058 C12.030,7.734 12.133,7.391 12.133,7.027 C12.133,6.371 11.853,5.796 11.295,5.302 C10.736,4.808 9.984,4.560 9.039,4.560 C8.141,4.560 7.415,4.805 6.862,5.293 C6.310,5.781 6.012,6.375 5.969,7.074 L7.480,7.262 C7.586,6.773 7.779,6.410 8.061,6.172 C8.342,5.934 8.691,5.814 9.109,5.814 C9.543,5.814 9.888,5.929 10.144,6.157 C10.399,6.386 10.527,6.660 10.527,6.980 C10.527,7.211 10.455,7.422 10.311,7.613 C10.217,7.734 9.930,7.990 9.449,8.381 C8.969,8.771 8.648,9.123 8.488,9.435 C8.328,9.748 8.248,10.146 8.248,10.631 C8.248,10.678 8.250,10.809 8.254,11.023 L9.748,11.023 C9.740,10.570 9.778,10.256 9.862,10.080 ZM9.900,13.238 L9.900,11.592 L8.254,11.592 L8.254,13.238 L9.900,13.238 Z"/>
</svg>