<?xml version="1.0" encoding="utf-8"?><svg width="52" height="32" viewBox="0 0 52 32" xmlns="http://www.w3.org/2000/svg" xmlns:xlink="http://www.w3.org/1999/xlink"><svg width="28" height="32" viewBox="2 0 28 32" id="brondby" xmlns="http://www.w3.org/2000/svg"><g fill="none" fill-rule="evenodd"><path fill="#825D35" d="M13.263 23.984l-4.131.965c1.08.532 1.995.896 3.403 1.202l.728-2.167m5.417-.017l4.13.965c-1.08.532-1.994.896-3.403 1.202l-.728-2.167"/><path fill="#1A1919" d="M15.716.762h.04l.22-.001h.22l.039.001c3.597.028 7.161.698 10.694 1.984-.662 1.838-1.04 2.585-1.213 5.182l-.42 6.33c-.118 1.77-.263 3.257-.62 4.465a10.21 10.21 0 0 1-.12.376l1.003 2.1 2.984-.48-.185.324c-1.234 2.157-2.807 3.724-4.82 5.11L25 28.825c-2.733 1.717-6.198 2.4-9.295 2.375-2.908-.024-5.787-.59-8.753-2.375l1.429-2.697c-1.996-1.38-3.557-2.941-4.784-5.085l-.185-.323 2.984.479 1-2.096a10.18 10.18 0 0 1-.12-.38c-.357-1.208-.502-2.695-.62-4.465l-.42-6.33c-.173-2.597-.552-3.344-1.214-5.182C8.555 1.46 12.12.79 15.716.762zm2.862 23.206l.723 2.074c-2.197.47-4.477.49-6.66.038l.735-2.112c.679.14 1.413.23 2.197.249.252.006.509.006.761 0a12.353 12.353 0 0 0 2.244-.25zm.898 2.036l-.661-1.898 3.753.87c-.996.446-2.034.79-3.092 1.028zm-7.011.039l.677-1.944-3.81.889c1.004.468 2.056.819 3.133 1.055z"/><path fill="#264269" d="M5.25 2.853c.207.564.424 1.128.603 1.7.348 1.115.483 2.2.56 3.363l.421 6.33c.095 1.433.205 3.046.613 4.427.622 2.105 1.75 3.52 3.754 4.416 1.367.612 2.883.913 4.376.95.251.006.503.006.753 0 1.508-.03 3.04-.332 4.42-.95 2.004-.897 3.132-2.31 3.755-4.416.408-1.38.517-2.994.612-4.427l.421-6.33c.077-1.163.212-2.248.56-3.363.18-.572.397-1.136.603-1.7C23.328 1.645 19.82.968 16.233.94h-.039a32.886 32.886 0 0 0-.436 0h-.04C12.13.968 8.624 1.645 5.25 2.853"/><path fill="#EDDF36" d="M8.462 25.974c-1.776-1.228-3.4-2.728-4.71-5.02l2.747.442.982-2.055c.717 1.942 1.914 3.135 3.647 3.91.594.266 1.271.499 2.022.669l-4.09.939-.005-.003-.593 1.118"/><path fill="#264269" d="M9.132 25.091L7.19 28.76c2.675 1.575 5.418 2.237 8.518 2.263 3.064.025 6.409-.647 9.055-2.26l-2.01-3.674c-4.276 1.957-9.36 2.038-13.62.003"/><path fill="#EDDF36" d="M23.454 26c1.792-1.232 3.428-2.738 4.75-5.045l-2.749.44-.981-2.054c-.718 1.942-1.914 3.135-3.648 3.91-.594.266-1.27.499-2.021.669l4.022.937h.001L23.454 26"/><path fill="#EDDD33" d="M10.75 29.749l-.664-.221.776-2.334c-.174.048-.698.04-1.03-.037l.057-.624c.71.096.935.01 1.222-.098l.668.221-1.028 3.093m3.917-.746c-.27.183-.568.3-1.02.265-.457-.034-1.325-.184-1.282-1.145.02-.429.283-.76.6-.934a1.954 1.954 0 0 1 1.202-.2c.526.072.901.311 1.14.645.236.334.306.767.208 1.298-.228 1.237-.99 1.684-2.13 1.474-.57-.105-1.02-.405-1.115-1.024l.739.022c.162.313.397.449.816.45.586.002.787-.385.842-.851zm-.008-.908c-.033-.357-.453-.453-.765-.453-.359 0-.747.155-.717.574.028.38.477.444.673.447.366.004.85-.113.809-.568zm2.264.622a1.48 1.48 0 0 1 .98-.386c.458-.02 1.338.024 1.41.983.033.428-.19.789-.482 1a1.954 1.954 0 0 1-1.17.343c-.53-.01-.932-.201-1.208-.504-.276-.304-.397-.725-.364-1.263.078-1.256.782-1.791 1.937-1.72.58.036 1.063.28 1.231.883l-.736.066c-.198-.29-.448-.397-.865-.348-.582.068-.735.477-.733.946zm.93 1.258c.356-.043.724-.244.644-.655-.074-.375-.527-.384-.723-.363-.363.04-.83.214-.734.661.076.35.504.395.814.357zm5.275-1.345l-.54.166.19.617-.803.248-.19-.617-1.821.561-.144-.466 1.209-2.6.788-.242.597 1.935.54-.166.174.563zm-1.518-.15l-.356-1.155-.606 1.452.962-.297z"/><path fill="#EDDF36" d="M9.69 11.03c0-.774 1.367-1.194 1.947-1.35 1.392-.375 2.995-.495 4.432-.495 1.439 0 3.043.12 4.436.496.458.123 1.417.372 1.797.868a.823.823 0 0 1 .155.482v9.797c-.018.767-1.384 1.104-1.965 1.259-1.39.371-2.988.474-4.423.474-1.434 0-3.03-.12-4.418-.491-.581-.156-1.942-.539-1.96-1.308V11.03"/><path fill="#CCC23A" d="M20.587 22.024c.529-.144 1.826-.547 1.84-1.188V18.92c-.29.363-.942.686-1.84.935v2.169zm1.84-3.525v-2.062c-.21.264-.614.507-1.164.715v2.324c.724-.277 1.15-.613 1.154-.977h.01zm0-2.483v-2.062c-.29.362-.942.685-1.84.934v2.322c1.127-.307 1.825-.729 1.83-1.194h.01zm0-2.484v-1.996c-.211.264-.614.506-1.164.715v2.258c.724-.277 1.15-.613 1.154-.977h.01zm-1.84 1.194V12.47c.176-.049.342-.1.498-.155v2.258a7.776 7.776 0 0 1-.498.153zm.498 2.49v2.324a7.753 7.753 0 0 1-.498.153v-2.322c.175-.049.342-.1.498-.154zm-11.081 3.909c.284.244.744.432 1.143.563v-2.27c-.005.051-1.147-.46-1.143-.568v2.275zm1.143-9.091v2.18c-.51-.166-.902-.36-1.143-.567v-2.133c.239.182.724.402 1.143.52zm0 2.413v2.25c-.51-.166-.902-.356-1.143-.563v-2.23c.29.225.765.473 1.143.543zm0 2.495v2.239c-.51-.166-.902-.357-1.143-.564v-2.214a4.96 4.96 0 0 0 1.143.539zm4.074-6.962v1.704c-1.106.01-3.407-.34-3.305-.865.11-.568 2.212-.79 3.305-.84"/><path fill="#1A1919" d="M16.087 9.134c3.55 0 6.428.784 6.428 1.75v9.986c0 .967-2.879 1.751-6.428 1.751-3.55 0-6.428-.784-6.428-1.75v-9.987c0-.967 2.878-1.751 6.428-1.751zM9.75 10.93a.479.479 0 0 1 .008-.088.652.652 0 0 1 .154-.297 1.78 1.78 0 0 1 .53-.391c.271-.142.56-.25.852-.34.368-.115.745-.202 1.123-.275.398-.076.8-.135 1.201-.18a21.03 21.03 0 0 1 1.147-.098l-.118.673c-1.65.134-2.83.49-2.83.91 0 .15.153.293.427.42l-.86.81c-1.015-.303-1.634-.704-1.634-1.144zm2.678.412c.748.28 2.108.468 3.66.468 1.747 0 3.249-.238 3.911-.577l1.016.767c-1.16.387-2.939.636-4.931.636-1.76 0-3.351-.194-4.5-.506l.844-.788zm7.736-.208c.127-.092.197-.19.197-.29 0-.408-1.118-.757-2.698-.899l-.118-.675c.566.036 1.13.094 1.69.18h.003c.75.117 1.524.278 2.218.576.61.262.961.572.961.904 0 .373-.445.718-1.2.999l-1.053-.795zm-5.216-1.882l.014-.001a23.443 23.443 0 0 1 2.4.008l.118.67a17.967 17.967 0 0 0-2.65-.01l.118-.667zm1.14.803c.496 0 .972.018 1.412.049v1.48a20.14 20.14 0 0 1-2.695.008v-1.497c.403-.026.835-.04 1.284-.04zm1.59.062c1.471.12 2.504.4 2.504.726 0 .327-1.033.607-2.504.727v-1.453zm-3.052 1.463c-1.538-.114-2.631-.4-2.631-.737 0-.336 1.093-.622 2.631-.736v1.473zm7.801-.223v1.996h-.01c-.004.364-.43.7-1.154.976v-2.258c.55-.208.953-.45 1.164-.714zm-1.342 3.037c-.611.211-1.403.383-2.314.499v-2.247c.9-.118 1.69-.294 2.314-.51v2.258zm-2.492.52c-.77.09-1.618.14-2.51.14a22.56 22.56 0 0 1-1.863-.076v-2.243a21.722 21.722 0 0 0 4.374-.067v2.246zm-4.552.049c-.964-.089-1.825-.238-2.517-.431v-2.258c.703.2 1.561.354 2.517.445v2.244zm-2.695-.483c-.99-.3-1.591-.695-1.596-1.127V11.37c.268.325.829.618 1.596.853v2.258zm11.081-.706v2.063h-.01c-.005.487-.77.926-1.993 1.236v-2.321c.982-.255 1.696-.593 2.003-.978zm-2.181 3.343c-1.032.242-2.357.396-3.814.417V15.23c1.447-.022 2.769-.181 3.814-.433v2.32zm-3.992.42h-.17c-1.28 0-2.47-.102-3.466-.278v-2.316a19.666 19.666 0 0 0 3.636.288v2.305zm-3.815-.31c-1.621-.308-2.682-.816-2.689-1.39v-2.05c.383.464 1.362.862 2.69 1.122v2.317zm9.989-.97v2.063h-.01c-.005.363-.431.7-1.155.976v-2.324c.55-.208.953-.45 1.165-.714zm-1.343 3.104c-.611.211-1.403.383-2.314.498V17.55c.9-.119 1.69-.294 2.314-.51v2.323zm-2.492.52c-.77.09-1.618.14-2.51.14a22.56 22.56 0 0 1-1.863-.076v-2.308a22.148 22.148 0 0 0 4.374-.067v2.311zm-4.552.049c-.964-.089-1.825-.238-2.517-.432v-2.322c.703.2 1.561.353 2.517.445v2.309zm-2.695-.484c-.987-.299-1.589-.692-1.596-1.124V16.27c.269.326.829.618 1.596.853v2.323zm11.082-.705v2.092c-.012.486-.78.923-2.004 1.232v-2.347c.982-.254 1.697-.593 2.004-.977zm-2.182 3.367c-1.033.242-2.36.396-3.814.417v-2.33c1.447-.021 2.769-.18 3.814-.432v2.345zm-3.992.419h-.17c-1.28 0-2.47-.102-3.466-.277v-2.34a19.667 19.667 0 0 0 3.636.288v2.329zm-3.815-.31c-1.616-.307-2.675-.812-2.689-1.384v-2.08c.384.465 1.362.863 2.69 1.123v2.341z"/><path fill="#EDDF36" d="M20.187 10.863l.07-.068-.002-4.518c-.001-2.288-1.91-4.236-4.165-4.236-2.254 0-4.165 1.948-4.165 4.236v4.487c0 .019.07.081.07.1.025.139.183.224.366.308l-.013-4.864c0-1.922 1.338-3.507 3.196-3.779.178-.026.36-.04.546-.04 2.12 0 3.752 1.708 3.752 3.814l-.019 4.865c.241-.104.347-.21.364-.305"/><path fill="#1A1919" d="M20.274 10.97l-.154.192-.31.137.004-5.017c0-2.055-1.651-3.785-3.724-3.785a3.68 3.68 0 0 0-.533.038c-1.84.27-3.191 1.897-3.191 3.747v5.015l-.327-.147-.136-.159V6.282c0-2.312 1.86-4.249 4.187-4.249s4.188 1.937 4.188 4.25l-.004 4.687zm-.089-.03l.003-4.658c0-2.288-1.844-4.16-4.098-4.16-2.254 0-4.098 1.872-4.098 4.16v4.676l.102.118.183.083V6.282c0-1.921 1.41-3.562 3.267-3.835.178-.026.36-.04.546-.04 2.12 0 3.813 1.77 3.813 3.875l-.003 4.88.164-.072.121-.15z"/><path stroke="#1A1919" stroke-width=".003" d="M20.274 10.97l-.154.192-.31.137.004-5.017c0-2.055-1.651-3.785-3.724-3.785a3.68 3.68 0 0 0-.533.038c-1.84.27-3.191 1.897-3.191 3.747v5.015l-.327-.147-.136-.159V6.282c0-2.312 1.86-4.249 4.187-4.249s4.188 1.937 4.188 4.25l-.004 4.687zm-.089-.03l.003-4.658c0-2.288-1.844-4.16-4.098-4.16-2.254 0-4.098 1.872-4.098 4.16v4.676l.102.118.183.083V6.282c0-1.921 1.41-3.562 3.267-3.835.178-.026.36-.04.546-.04 2.12 0 3.813 1.77 3.813 3.875l-.003 4.88.164-.072.121-.15z"/><path fill="#EDDD33" d="M14.33 5.302v-.001l-.002-.006v-.007l-.002-.01v-.014l-.003-.022.009-.039c.06-.25.517-.341.735-.38l.088-.014.083-.011c.27-.036.541-.05.812-.05h.084l.12.003c.027 0 .053.002.08.003l.078.003.038.002.038.003.035.002.1.008.05.004.036.004.035.003.036.004.069.009.066.009.065.01.063.01.018.004.001-.007.21.053.047.012.03.01.02.005.028.01.017.005c.029.01.056.02.084.032l.004.002.033.016.014.006.014.008.018.01a.48.48 0 0 1 .071.046l.015.012.016.015c.04.037.072.085.085.14l.01.038-.001.011-.001.008v.009l-.002.012-.001.015-.001.005-.002.006-.379 3.13c-.033.198-.314.274-.48.311a4.482 4.482 0 0 1-1.507.038c-.207-.03-.681-.104-.697-.368l-.078-.644-.066-.485.005.005-.083-.713-.155-1.28"/><path fill="#CCC23A" d="M15.27 4.776l.092.902-.489-.098.245 3.162-.385-.193-.41-3.324a.288.288 0 0 1 .175-.253c.239-.113.515-.13.772-.196m2.497.528c-.127.165-.296.223-.56.292l-.325 3.172.459-.21.426-3.254"/><path fill="#1A1919" d="M14.284 5.16c.063-.256.531-.349.754-.388l.176-.026c.305-.04.611-.051.919-.051.268.006.535.022.801.058.133.02.234.038.367.071a2.326 2.326 0 0 1 .23.077c.117.05.246.128.279.26.013.056.002.099-.005.156l-.382 3.156c-.034.202-.323.28-.494.318-.482.106-1.057.107-1.545.038-.212-.03-.698-.106-.715-.376l-.384-3.167c-.005-.043-.011-.081 0-.126zm2.629 3.543c.123-.027.396-.094.421-.244l.068-.556a1.772 1.772 0 0 1-.422.146l-.067.654zm-.024-.635a4.517 4.517 0 0 1-.717.073v.644c.223-.005.445-.025.65-.063l.067-.654zm-.806.075h-.02a4.87 4.87 0 0 1-.619-.041l.068.654c.182.02.376.031.571.03v-.643zm-.73-.055c-.239-.038-.483-.1-.663-.204l.068.56c.012.204.489.276.638.297l.025.003-.068-.656zm2.06-.283l.031-.252a1.49 1.49 0 0 1-.368.187 3.58 3.58 0 0 1-1.012.128 3.61 3.61 0 0 1-1.013-.128c-.165-.05-.29-.094-.407-.205l.034.248c.36.243 1.132.278 1.386.278.246 0 .977-.033 1.35-.256zm.044-.357l.1-.828a1.516 1.516 0 0 1-.369.153l-.09.874c.109-.04.253-.111.36-.2zm-.36-.65a4.63 4.63 0 0 1-.925.112v.875c.276-.006.568-.035.833-.11l.091-.877zm-1.014.113h-.043c-.176 0-.504-.01-.83-.067l.09.874c.25.051.516.068.764.068h.019v-.875zm-.965-.084a1.92 1.92 0 0 1-.58-.198l.093.798c.126.126.273.183.442.234a2.3 2.3 0 0 0 .135.037l-.09-.87zm2.453-.317l.033-.272c-.146.12-.36.217-.47.25-.342.102-.74.134-1.094.134-.354 0-.752-.032-1.094-.134a1.068 1.068 0 0 1-.457-.263l.036.296c.38.267 1.236.305 1.515.305.283 0 1.159-.04 1.531-.316zm.048-.397l.084-.692c-.109.09-.283.154-.479.202l-.085.774c.147-.049.363-.156.48-.284zm-.487-.469a5.93 5.93 0 0 1-.96.104v.787c.29-.006.596-.037.874-.111l.086-.78zm-1.049.106h-.033a6.4 6.4 0 0 1-.853-.065l.082.793c.252.044.514.059.76.059h.044V5.75zm-.977-.08c-.29-.05-.567-.129-.715-.255l.084.695c.14.142.304.24.494.295.071.022.144.04.218.055l-.081-.79zm2.616-.404c.003-.032.009-.052.001-.084-.02-.082-.097-.133-.166-.17a1.162 1.162 0 0 0-.272-.1l-.1.632c.287-.07.483-.168.537-.278zm-.528-.377c-.088-.022-.182-.034-.273-.048a6.693 6.693 0 0 0-.749-.056v.878c.346-.007.663-.042.92-.097l.102-.677zm-1.111-.105c-.287 0-.573.012-.857.05l-.084.01.112.766c.238.035.508.054.796.054h.033v-.88zm-1.037.077c-.176.031-.626.12-.675.32a.148.148 0 0 0-.003.057c.04.15.347.282.794.357l-.116-.734zm1.064-2.006a.253.253 0 0 0 .018.146c.014.029.069.05.1.046.144-.015.156-.149.19-.261.04-.126.161-.132.25-.05.084.081.116.26.091.37-.065.293-.32.445-.609.438-.236-.006-.406-.1-.492-.324-.073-.188-.05-.354-.04-.545a1.024 1.024 0 0 1-.094-.545c.054-.365.297-.558.654-.556a.56.56 0 0 1 .565.577l-.516-.064c-.005-.049-.025-.095-.083-.09-.043.003-.07.06-.078.095-.014.056-.04.292.012.326a.051.051 0 0 0 .024-.01l-.01.04.546.049a.837.837 0 0 1-.528.358"/><path fill="#EDDF36" d="M16.178 1.663c.17 0 .434.113.471.407a3.815 3.815 0 0 0-.34-.03.16.16 0 0 0-.172-.132c-.09.007-.14.095-.158.163-.032.131-.054.451.108.435a.104.104 0 0 0 .033-.009c.13.002.258.01.388.024a.723.723 0 0 1-.478.255c-.009.094-.029.165.018.263.03.063.119.104.188.097.212-.022.237-.223.268-.324.016-.053.055-.055.102-.01.058.055.085.2.066.285-.052.233-.253.375-.52.368-.271-.007-.364-.144-.411-.267-.07-.18-.04-.347-.032-.535a.918.918 0 0 1-.097-.51c.056-.374.314-.482.566-.48"/><path fill="#1A1919" d="M17.898 5.023c-.01-.055-.05-.103-.1-.15a.724.724 0 0 1-.003.026c-.008.047-.044.125.077.126.007 0 .017 0 .026-.002zm-.117-.64c.114-.087.306.018.267.204a.033.033 0 0 0 0 .015c.009.038.044.094.062.13.047.096.076.19.078.299.005.207-.178.34-.365.347-.31.012-.402-.235-.38-.507.049-.642-.144-1.302-.739-1.61-.027-.014-.035-.021-.063-.033l.06-.098-.002-.263c.059.02.11.047.162.076.567.293.851.84.92 1.44zM16.208 3.12a1.423 1.423 0 0 0-.147-.005c-1.079.016-1.48.81-1.425 1.825.014.268-.148.468-.42.438a.37.37 0 0 1-.336-.426c.015-.125.161-.337.156-.398-.016-.18.165-.262.272-.184.12-.927.683-1.596 1.748-1.612a2.37 2.37 0 0 1 .41.044L16.402 3l-.194.12zm-1.877 1.734c-.05.046-.094.09-.105.14-.005.025.006.027.05.03.01 0 .042.002.053-.001.013-.01.01-.05.01-.063a1.998 1.998 0 0 1-.008-.106z"/><path fill="#EDDF36" d="M14.296 4.53c.018.203-.14.314-.157.454-.008.075.032.12.105.128a.21.21 0 0 0 .022.001l.002.103c0 .025.005.05.009.076-.017 0-.034 0-.052-.003a.282.282 0 0 1-.258-.326c.016-.144.166-.302.155-.417-.01-.128.16-.175.174-.016zm.079.474a.338.338 0 0 0 0-.05c-.064-1.19.462-2.089 1.683-2.107.093-.001.187.006.28.02l.057.016c-.018.05-.057.171-.167.15a1.504 1.504 0 0 0-.168-.007c-1.12.016-1.57.83-1.51 1.919.008.16-.048.28-.17.324a.89.89 0 0 1-.005-.265zm2.39-2.007l.057.026c.693.358.939 1.116.88 1.869a.529.529 0 0 0 0 .107c-.001.113.02.143.024.204a.205.205 0 0 1-.007.077c-.17-.044-.204-.224-.19-.402.052-.68-.166-1.374-.793-1.698a.461.461 0 0 0 .03-.183zm1.03 2.114l.03.003c.047 0 .103-.027.102-.076-.004-.196-.175-.306-.134-.506.032-.156.196-.09.17.036a.125.125 0 0 0 0 .053c.011.048.047.107.069.15a.604.604 0 0 1 .07.262c.003.157-.144.251-.283.256h-.008c.003-.03 0-.06.004-.091a.244.244 0 0 0-.02-.087zM9.69 11.03c0-.774 1.367-1.194 1.947-1.35 1.392-.375 2.995-.495 4.432-.495 1.439 0 3.043.12 4.436.496.458.123 1.417.372 1.797.868a.823.823 0 0 1 .155.482v9.797c-.018.767-1.384 1.104-1.965 1.259-1.39.371-2.988.474-4.423.474-1.434 0-3.03-.12-4.418-.491-.581-.156-1.942-.539-1.96-1.308V11.03"/><path fill="#CCC23A" d="M20.587 22.024c.529-.144 1.826-.547 1.84-1.188V18.92c-.29.363-.942.686-1.84.935v2.169zm1.84-3.525v-2.062c-.21.264-.614.507-1.164.715v2.324c.724-.277 1.15-.613 1.154-.977h.01zm0-2.483v-2.062c-.29.362-.942.685-1.84.934v2.322c1.127-.307 1.825-.729 1.83-1.194h.01zm0-2.484v-1.996c-.211.264-.614.506-1.164.715v2.258c.724-.277 1.15-.613 1.154-.977h.01zm-1.84 1.194V12.47c.176-.049.342-.1.498-.155v2.258a7.776 7.776 0 0 1-.498.153zm.498 2.49v2.324a7.753 7.753 0 0 1-.498.153v-2.322c.175-.049.342-.1.498-.154zm-11.081 3.909c.284.244.744.432 1.143.563v-2.27c-.005.051-1.147-.46-1.143-.568v2.275zm1.143-9.091v2.18c-.51-.166-.902-.36-1.143-.567v-2.133c.239.182.724.402 1.143.52zm0 2.413v2.25c-.51-.166-.902-.356-1.143-.563v-2.23c.29.225.765.473 1.143.543zm0 2.495v2.239c-.51-.166-.902-.357-1.143-.564v-2.214a4.96 4.96 0 0 0 1.143.539zm4.074-6.962v1.704c-1.106.01-3.407-.34-3.305-.865.11-.568 2.212-.79 3.305-.84"/><path fill="#1A1919" d="M16.087 9.134c3.55 0 6.428.784 6.428 1.75v9.986c0 .967-2.879 1.751-6.428 1.751-3.55 0-6.428-.784-6.428-1.75v-9.987c0-.967 2.878-1.751 6.428-1.751zM9.75 10.93a.479.479 0 0 1 .008-.088.652.652 0 0 1 .154-.297 1.78 1.78 0 0 1 .53-.391c.271-.142.56-.25.852-.34.368-.115.745-.202 1.123-.275.398-.076.8-.135 1.201-.18a21.03 21.03 0 0 1 1.147-.098l-.118.673c-1.65.134-2.83.49-2.83.91 0 .15.153.293.427.42l-.86.81c-1.015-.303-1.634-.704-1.634-1.144zm2.678.412c.748.28 2.108.468 3.66.468 1.747 0 3.249-.238 3.911-.577l1.016.767c-1.16.387-2.939.636-4.931.636-1.76 0-3.351-.194-4.5-.506l.844-.788zm7.736-.208c.127-.092.197-.19.197-.29 0-.408-1.118-.757-2.698-.899l-.118-.675c.566.036 1.13.094 1.69.18h.003c.75.117 1.524.278 2.218.576.61.262.961.572.961.904 0 .373-.445.718-1.2.999l-1.053-.795zm-5.216-1.882l.014-.001a23.443 23.443 0 0 1 2.4.008l.118.67a17.967 17.967 0 0 0-2.65-.01l.118-.667zm1.14.803c.496 0 .972.018 1.412.049v1.48a20.14 20.14 0 0 1-2.695.008v-1.497c.403-.026.835-.04 1.284-.04zm1.59.062c1.471.12 2.504.4 2.504.726 0 .327-1.033.607-2.504.727v-1.453zm-3.052 1.463c-1.538-.114-2.631-.4-2.631-.737 0-.336 1.093-.622 2.631-.736v1.473zm7.801-.223v1.996h-.01c-.004.364-.43.7-1.154.976v-2.258c.55-.208.953-.45 1.164-.714zm-1.342 3.037c-.611.211-1.403.383-2.314.499v-2.247c.9-.118 1.69-.294 2.314-.51v2.258zm-2.492.52c-.77.09-1.618.14-2.51.14a22.56 22.56 0 0 1-1.863-.076v-2.243a21.722 21.722 0 0 0 4.374-.067v2.246zm-4.552.049c-.964-.089-1.825-.238-2.517-.431v-2.258c.703.2 1.561.354 2.517.445v2.244zm-2.695-.483c-.99-.3-1.591-.695-1.596-1.127V11.37c.268.325.829.618 1.596.853v2.258zm11.081-.706v2.063h-.01c-.005.487-.77.926-1.993 1.236v-2.321c.982-.255 1.696-.593 2.003-.978zm-2.181 3.343c-1.032.242-2.357.396-3.814.417V15.23c1.447-.022 2.769-.181 3.814-.433v2.32zm-3.992.42h-.17c-1.28 0-2.47-.102-3.466-.278v-2.316a19.666 19.666 0 0 0 3.636.288v2.305zm-3.815-.31c-1.621-.308-2.682-.816-2.689-1.39v-2.05c.383.464 1.362.862 2.69 1.122v2.317zm9.989-.97v2.063h-.01c-.005.363-.431.7-1.155.976v-2.324c.55-.208.953-.45 1.165-.714zm-1.343 3.104c-.611.211-1.403.383-2.314.498V17.55c.9-.119 1.69-.294 2.314-.51v2.323zm-2.492.52c-.77.09-1.618.14-2.51.14a22.56 22.56 0 0 1-1.863-.076v-2.308a22.148 22.148 0 0 0 4.374-.067v2.311zm-4.552.049c-.964-.089-1.825-.238-2.517-.432v-2.322c.703.2 1.561.353 2.517.445v2.309zm-2.695-.484c-.987-.299-1.589-.692-1.596-1.124V16.27c.269.326.829.618 1.596.853v2.323zm11.082-.705v2.092c-.012.486-.78.923-2.004 1.232v-2.347c.982-.254 1.697-.593 2.004-.977zm-2.182 3.367c-1.033.242-2.36.396-3.814.417v-2.33c1.447-.021 2.769-.18 3.814-.432v2.345zm-3.992.419h-.17c-1.28 0-2.47-.102-3.466-.277v-2.34a19.667 19.667 0 0 0 3.636.288v2.329zm-3.815-.31c-1.616-.307-2.675-.812-2.689-1.384v-2.08c.384.465 1.362.863 2.69 1.123v2.341z"/><path fill="#EDDF36" d="M20.187 10.863l.07-.068-.002-4.518c-.001-2.288-1.91-4.236-4.165-4.236-2.254 0-4.165 1.948-4.165 4.236v4.487c0 .019.07.081.07.1.025.139.183.224.366.308l-.013-4.864c0-1.922 1.338-3.507 3.196-3.779.178-.026.36-.04.546-.04 2.12 0 3.752 1.708 3.752 3.814l-.019 4.865c.241-.104.347-.21.364-.305"/><path fill="#1A1919" d="M20.274 10.97l-.154.192-.31.137.004-5.017c0-2.055-1.651-3.785-3.724-3.785a3.68 3.68 0 0 0-.533.038c-1.84.27-3.191 1.897-3.191 3.747v5.015l-.327-.147-.136-.159V6.282c0-2.312 1.86-4.249 4.187-4.249s4.188 1.937 4.188 4.25l-.004 4.687zm-.089-.03l.003-4.658c0-2.288-1.844-4.16-4.098-4.16-2.254 0-4.098 1.872-4.098 4.16v4.676l.102.118.183.083V6.282c0-1.921 1.41-3.562 3.267-3.835.178-.026.36-.04.546-.04 2.12 0 3.813 1.77 3.813 3.875l-.003 4.88.164-.072.121-.15z"/><path stroke="#1A1919" stroke-width=".003" d="M20.274 10.97l-.154.192-.31.137.004-5.017c0-2.055-1.651-3.785-3.724-3.785a3.68 3.68 0 0 0-.533.038c-1.84.27-3.191 1.897-3.191 3.747v5.015l-.327-.147-.136-.159V6.282c0-2.312 1.86-4.249 4.187-4.249s4.188 1.937 4.188 4.25l-.004 4.687zm-.089-.03l.003-4.658c0-2.288-1.844-4.16-4.098-4.16-2.254 0-4.098 1.872-4.098 4.16v4.676l.102.118.183.083V6.282c0-1.921 1.41-3.562 3.267-3.835.178-.026.36-.04.546-.04 2.12 0 3.813 1.77 3.813 3.875l-.003 4.88.164-.072.121-.15z"/><path fill="#EDDD33" d="M14.33 5.302v-.001l-.002-.006v-.007l-.002-.01v-.014l-.003-.022.009-.039c.06-.25.517-.341.735-.38l.088-.014.083-.011c.27-.036.541-.05.812-.05h.084l.12.003c.027 0 .053.002.08.003l.078.003.038.002.038.003.035.002.1.008.05.004.036.004.035.003.036.004.069.009.066.009.065.01.063.01.018.004.001-.007.21.053.047.012.03.01.02.005.028.01.017.005c.029.01.056.02.084.032l.004.002.033.016.014.006.014.008.018.01a.48.48 0 0 1 .071.046l.015.012.016.015c.04.037.072.085.085.14l.01.038-.001.011-.001.008v.009l-.002.012-.001.015-.001.005-.002.006-.379 3.13c-.033.198-.314.274-.48.311a4.482 4.482 0 0 1-1.507.038c-.207-.03-.681-.104-.697-.368l-.078-.644-.066-.485.005.005-.083-.713-.155-1.28"/><path fill="#CCC23A" d="M15.27 4.776l.092.902-.489-.098.245 3.162-.385-.193-.41-3.324a.288.288 0 0 1 .175-.253c.239-.113.515-.13.772-.196m2.497.528c-.127.165-.296.223-.56.292l-.325 3.172.459-.21.426-3.254"/><path fill="#1A1919" d="M14.284 5.16c.063-.256.531-.349.754-.388l.176-.026c.305-.04.611-.051.919-.051.268.006.535.022.801.058.133.02.234.038.367.071a2.326 2.326 0 0 1 .23.077c.117.05.246.128.279.26.013.056.002.099-.005.156l-.382 3.156c-.034.202-.323.28-.494.318-.482.106-1.057.107-1.545.038-.212-.03-.698-.106-.715-.376l-.384-3.167c-.005-.043-.011-.081 0-.126zm2.629 3.543c.123-.027.396-.094.421-.244l.068-.556a1.772 1.772 0 0 1-.422.146l-.067.654zm-.024-.635a4.517 4.517 0 0 1-.717.073v.644c.223-.005.445-.025.65-.063l.067-.654zm-.806.075h-.02a4.87 4.87 0 0 1-.619-.041l.068.654c.182.02.376.031.571.03v-.643zm-.73-.055c-.239-.038-.483-.1-.663-.204l.068.56c.012.204.489.276.638.297l.025.003-.068-.656zm2.06-.283l.031-.252a1.49 1.49 0 0 1-.368.187 3.58 3.58 0 0 1-1.012.128 3.61 3.61 0 0 1-1.013-.128c-.165-.05-.29-.094-.407-.205l.034.248c.36.243 1.132.278 1.386.278.246 0 .977-.033 1.35-.256zm.044-.357l.1-.828a1.516 1.516 0 0 1-.369.153l-.09.874c.109-.04.253-.111.36-.2zm-.36-.65a4.63 4.63 0 0 1-.925.112v.875c.276-.006.568-.035.833-.11l.091-.877zm-1.014.113h-.043c-.176 0-.504-.01-.83-.067l.09.874c.25.051.516.068.764.068h.019v-.875zm-.965-.084a1.92 1.92 0 0 1-.58-.198l.093.798c.126.126.273.183.442.234a2.3 2.3 0 0 0 .135.037l-.09-.87zm2.453-.317l.033-.272c-.146.12-.36.217-.47.25-.342.102-.74.134-1.094.134-.354 0-.752-.032-1.094-.134a1.068 1.068 0 0 1-.457-.263l.036.296c.38.267 1.236.305 1.515.305.283 0 1.159-.04 1.531-.316zm.048-.397l.084-.692c-.109.09-.283.154-.479.202l-.085.774c.147-.049.363-.156.48-.284zm-.487-.469a5.93 5.93 0 0 1-.96.104v.787c.29-.006.596-.037.874-.111l.086-.78zm-1.049.106h-.033a6.4 6.4 0 0 1-.853-.065l.082.793c.252.044.514.059.76.059h.044V5.75zm-.977-.08c-.29-.05-.567-.129-.715-.255l.084.695c.14.142.304.24.494.295.071.022.144.04.218.055l-.081-.79zm2.616-.404c.003-.032.009-.052.001-.084-.02-.082-.097-.133-.166-.17a1.162 1.162 0 0 0-.272-.1l-.1.632c.287-.07.483-.168.537-.278zm-.528-.377c-.088-.022-.182-.034-.273-.048a6.693 6.693 0 0 0-.749-.056v.878c.346-.007.663-.042.92-.097l.102-.677zm-1.111-.105c-.287 0-.573.012-.857.05l-.084.01.112.766c.238.035.508.054.796.054h.033v-.88zm-1.037.077c-.176.031-.626.12-.675.32a.148.148 0 0 0-.003.057.2.2 0 0 0 .053.086c.112.114.382.21.74.271l-.115-.734zm1.064-2.006a.253.253 0 0 0 .018.146c.014.029.069.05.1.046.144-.015.156-.149.19-.261.04-.126.161-.132.25-.05.084.081.116.26.091.37-.065.293-.32.445-.609.438-.236-.006-.406-.1-.492-.324-.073-.188-.05-.354-.04-.545a1.024 1.024 0 0 1-.094-.545c.054-.365.297-.558.654-.556a.56.56 0 0 1 .565.577l-.516-.064c-.005-.049-.025-.095-.083-.09-.043.003-.07.06-.078.095-.014.056-.04.292.012.326a.051.051 0 0 0 .024-.01l-.01.04.546.049a.837.837 0 0 1-.528.358"/><path fill="#EDDF36" d="M16.178 1.663c.17 0 .434.113.471.407a3.815 3.815 0 0 0-.34-.03.16.16 0 0 0-.172-.132c-.09.007-.14.095-.158.163-.032.131-.054.451.108.435a.104.104 0 0 0 .033-.009c.13.002.258.01.388.024a.723.723 0 0 1-.478.255c-.009.094-.029.165.018.263.03.063.119.104.188.097.212-.022.237-.223.268-.324.016-.053.055-.055.102-.01.058.055.085.2.066.285-.052.233-.253.375-.52.368-.271-.007-.364-.144-.411-.267-.07-.18-.04-.347-.032-.535a.918.918 0 0 1-.097-.51c.056-.374.314-.482.566-.48"/><path fill="#1A1919" d="M17.898 5.023c-.01-.055-.05-.103-.1-.15a.724.724 0 0 1-.003.026c-.008.047-.044.125.077.126.007 0 .017 0 .026-.002zm-.117-.64c.114-.087.306.018.267.204a.033.033 0 0 0 0 .015c.009.038.044.094.062.13.047.096.076.19.078.299.005.207-.178.34-.365.347-.31.012-.402-.235-.38-.507.049-.642-.144-1.302-.739-1.61-.027-.014-.035-.021-.063-.033l.06-.098-.002-.263c.059.02.11.047.162.076.567.293.851.84.92 1.44zM16.208 3.12a1.423 1.423 0 0 0-.147-.005c-1.079.016-1.48.81-1.425 1.825.014.268-.148.468-.42.438a.37.37 0 0 1-.336-.426c.015-.125.161-.337.156-.398-.016-.18.165-.262.272-.184.12-.927.683-1.596 1.748-1.612a2.37 2.37 0 0 1 .41.044L16.402 3l-.194.12zm-1.877 1.734c-.05.046-.094.09-.105.14-.005.025.006.027.05.03.01 0 .042.002.053-.001.013-.01.01-.05.01-.063a1.998 1.998 0 0 1-.008-.106z"/><path fill="#EDDF36" d="M14.296 4.53c.018.203-.14.314-.157.454-.008.075.032.12.105.128a.21.21 0 0 0 .022.001l.002.103c0 .025.005.05.009.076-.017 0-.034 0-.052-.003a.282.282 0 0 1-.258-.326c.016-.144.166-.302.155-.417-.01-.128.16-.175.174-.016zm.079.474a.338.338 0 0 0 0-.05c-.064-1.19.462-2.089 1.683-2.107.093-.001.187.006.28.02l.057.016c-.018.05-.057.171-.167.15a1.504 1.504 0 0 0-.168-.007c-1.12.016-1.57.83-1.51 1.919.007.147-.04.26-.142.313-.027.013-.031-.009-.035-.039-.01-.064-.003-.14.002-.215zm2.39-2.007l.057.026c.693.358.939 1.116.88 1.869a.529.529 0 0 0 0 .107c-.001.113.02.143.024.204a.26.26 0 0 1-.001.05c-.003.024-.002.029-.026.02-.153-.05-.183-.224-.17-.395.052-.68-.166-1.374-.793-1.698a.461.461 0 0 0 .03-.183zm1.03 2.114l.03.003c.047 0 .103-.027.102-.076-.004-.196-.175-.306-.134-.506.032-.156.196-.09.17.036a.125.125 0 0 0 0 .053c.011.048.047.107.069.15a.604.604 0 0 1 .07.262c.003.157-.144.251-.283.256h-.008a.368.368 0 0 0-.016-.178z"/><path fill="#EDDD33" d="M9.533 3.777l1.428.28-.991 1.065.175 1.445-1.32-.613-1.32.613.176-1.445-.991-1.065 1.428-.28.707-1.272.708 1.272zm-.077.106l1.272.25-.883.949.156 1.287-1.176-.546-1.176.546.156-1.287-.883-.95 1.273-.25.63-1.132.63 1.133z"/><path fill="#EDDD33" d="M8.825 2.994l.554.995 1.117.219-.775.833.137 1.13-1.033-.479-1.032.479.137-1.13-.775-.833 1.117-.219.553-.995m13.611.783l-1.428.28L22 5.122l-.175 1.445 1.32-.613 1.32.613-.176-1.445.99-1.065-1.427-.28-.707-1.272-.708 1.272zm.077.106l-1.272.25.883.949-.156 1.287 1.176-.546 1.176.546-.156-1.287.882-.95-1.272-.25-.63-1.132-.63 1.133z"/><path fill="#EDDD33" d="M23.144 2.994l-.554.995-1.117.219.775.833-.137 1.13 1.033-.479 1.032.479-.137-1.13.775-.833-1.117-.219-.553-.995"/></g></svg><svg width="24" height="32" viewBox="0 0 24 32" id="realmadrid" x="28" xmlns="http://www.w3.org/2000/svg"><path d="M1.44 29.66a1.16 1.16 0 0 0 .507-.09.52.52 0 0 0 .285-.511.49.49 0 0 0-.303-.5 1.37 1.37 0 0 0-.507-.072H.505v1.174h.936zm.174 1.75a.786.786 0 0 0 .675-.273.69.69 0 0 0 .127-.419.554.554 0 0 0-.37-.562 1.395 1.395 0 0 0-.52-.08H.505V31.4h1.1zM0 28.056h1.633c.445 0 .76.133.95.398a.92.92 0 0 1 .165.542.85.85 0 0 1-.205.588 1 1 0 0 1-.305.222 1.31 1.31 0 0 1 .437.25.91.91 0 0 1 .257.685c0 .24-.08.474-.23.663-.23.296-.595.444-1.095.444H0v-3.792zm3.76 3.374a.54.54 0 0 0 .35.116c.165 0 .328-.04.476-.114a.64.64 0 0 0 .388-.617v-.374a.81.81 0 0 1-.22.09 1.84 1.84 0 0 1-.264.052l-.282.036a1.08 1.08 0 0 0-.38.106.41.41 0 0 0-.215.387.384.384 0 0 0 .147.318zm.98-1.257a.242.242 0 0 0 .215-.135.41.41 0 0 0 .03-.178.374.374 0 0 0-.17-.343.906.906 0 0 0-.484-.108.617.617 0 0 0-.517.196.643.643 0 0 0-.112.322H3.27a.768.768 0 0 1 .33-.7c.224-.136.482-.206.743-.2a1.51 1.51 0 0 1 .795.185.63.63 0 0 1 .303.578v1.593a.21.21 0 0 0 .028.116.15.15 0 0 0 .127.044l.07-.002.083-.013v.343a1.35 1.35 0 0 1-.166.039c-.05.006-.103.008-.155.007a.385.385 0 0 1-.35-.17.683.683 0 0 1-.08-.256 1.17 1.17 0 0 1-.409.323 1.26 1.26 0 0 1-.587.137.88.88 0 0 1-.631-.232.78.78 0 0 1-.244-.586.75.75 0 0 1 .241-.596 1.14 1.14 0 0 1 .63-.26l.743-.093zm1.336-2.117h.5v3.792h-.5zM8.78 31.2a1.7 1.7 0 0 0 .174-.78 1.367 1.367 0 0 0-.124-.63.7.7 0 0 0-.678-.381.67.67 0 0 0-.621.325c-.135.24-.202.5-.194.785a1.3 1.3 0 0 0 .194.735.69.69 0 0 0 .616.295.64.64 0 0 0 .634-.349H8.78zm.3-1.84c.264.282.398.662.37 1.048a1.79 1.79 0 0 1-.326 1.104 1.18 1.18 0 0 1-1.011.437 1.15 1.15 0 0 1-.91-.385 1.53 1.53 0 0 1-.336-1.037 1.61 1.61 0 0 1 .355-1.1 1.19 1.19 0 0 1 .952-.414 1.26 1.26 0 0 1 .906.357zm.72-.3h.442v.393a1.24 1.24 0 0 1 .417-.35 1.12 1.12 0 0 1 .49-.106c.393 0 .66.137.797.4a1.47 1.47 0 0 1 .114.644v1.773h-.474v-1.742a.94.94 0 0 0-.075-.408.456.456 0 0 0-.45-.258.89.89 0 0 0-.272.033.7.7 0 0 0-.336.227.69.69 0 0 0-.153.284 1.95 1.95 0 0 0-.034.416v1.448H9.8V29.06zm4.633.17a1.08 1.08 0 0 1 .354.783h-.453a.755.755 0 0 0-.2-.424.594.594 0 0 0-.473-.17.65.65 0 0 0-.637.434 1.73 1.73 0 0 0-.124.694c-.008.245.053.487.176.7a.68.68 0 0 0 .482.28.687.687 0 0 0 .53-.172.973.973 0 0 0 .235-.485h.453a1.09 1.09 0 0 1-1.182 1.058 1.065 1.065 0 0 1-.867-.395 1.52 1.52 0 0 1-.324-.991c-.025-.408.1-.812.355-1.133.224-.265.556-.414.903-.406a1.2 1.2 0 0 1 .76.228l.001-.001zm2.508-.07c.17.08.315.203.42.357.097.148.16.314.187.488.033.2.047.405.04.6h-2.03c-.004.24.066.475.2.675a.67.67 0 0 0 .577.253.75.75 0 0 0 .758-.562h.458a.984.984 0 0 1-.122.34 1.19 1.19 0 0 1-.227.305c-.146.14-.328.236-.525.28-.125.03-.252.043-.38.04a1.17 1.17 0 0 1-.878-.374 1.48 1.48 0 0 1-.36-1.053 1.58 1.58 0 0 1 .363-1.082 1.19 1.19 0 0 1 .947-.415 1.25 1.25 0 0 1 .572.139v-.001zm.17 1.085a1.2 1.2 0 0 0-.132-.483.677.677 0 0 0-.64-.335.707.707 0 0 0-.538.232.87.87 0 0 0-.23.586h1.54zm1.17.735a.67.67 0 0 0 .116.357.73.73 0 0 0 .61.225.91.91 0 0 0 .456-.111.376.376 0 0 0 .197-.35.295.295 0 0 0-.158-.27 1.87 1.87 0 0 0-.4-.13l-.37-.094a1.817 1.817 0 0 1-.523-.196.586.586 0 0 1-.3-.52.795.795 0 0 1 .283-.635 1.14 1.14 0 0 1 .763-.243c.417 0 .718.122.903.367a.8.8 0 0 1 .168.5h-.44a.54.54 0 0 0-.111-.286.71.71 0 0 0-.556-.183.67.67 0 0 0-.402.1c-.092.067-.142.177-.133.3s.076.213.177.265a1.07 1.07 0 0 0 .306.114l.308.075a2.38 2.38 0 0 1 .672.235.62.62 0 0 1 .272.56.85.85 0 0 1-.282.637c-.24.197-.545.293-.854.27-.412 0-.705-.093-.877-.28s-.27-.437-.274-.694h.448zm2.307-2.668h.47v.772h.443v.38h-.442v1.804c-.01.08.03.155.098.194a.42.42 0 0 0 .181.028h.073l.1-.008v.367a1.06 1.06 0 0 1-.168.034c-.062.007-.124.01-.186.01a.51.51 0 0 1-.443-.165.74.74 0 0 1-.116-.434v-1.83h-.375v-.38h.375v-.77zM23.53 31.2a1.74 1.74 0 0 0 .174-.78 1.38 1.38 0 0 0-.125-.63.7.7 0 0 0-.678-.381.67.67 0 0 0-.62.325c-.135.24-.203.5-.194.785a1.3 1.3 0 0 0 .194.735c.138.2.372.313.615.295a.64.64 0 0 0 .634-.349zm.3-1.84c.264.282.398.662.37 1.048a1.79 1.79 0 0 1-.326 1.104 1.18 1.18 0 0 1-1.012.437 1.144 1.144 0 0 1-.908-.385 1.53 1.53 0 0 1-.336-1.037 1.65 1.65 0 0 1 .354-1.11 1.19 1.19 0 0 1 .952-.414 1.26 1.26 0 0 1 .906.357z" fill="#8a8a8d"/><path d="M15.054 6.04a.157.157 0 1 1 0-.315.157.157 0 0 1 .001.316h-.001zm-9.313 7.3a6.35 6.35 0 0 1 9.514-5.523 6.35 6.35 0 0 1 3.189 5.493c.008 3.508-2.828 6.358-6.336 6.366S5.75 16.858 5.74 13.35zm8.842-9.67a.284.284 0 1 1-.143.546.282.282 0 1 1 .142-.546zm.258-.556a.157.157 0 1 1 .001.315.157.157 0 0 1-.001-.315zm-.13-.563c.056 0 .108.03.136.08s.028.11-.001.158-.08.078-.137.078a.157.157 0 1 1 0-.315zm1.95 1.484c.056 0 .108.03.136.08s.028.11 0 .157-.08.078-.137.078c-.087 0-.157-.07-.157-.158s.07-.157.158-.157zm-.13-.562a.157.157 0 1 1 0 .314.157.157 0 1 1 0-.314zm-.236-.494a.16.16 0 0 1 .136.238.158.158 0 0 1-.295-.079c0-.087.07-.158.158-.158zm-.374-.44c.087 0 .157.07.157.158s-.07.158-.157.158a.158.158 0 1 1 0-.316zm-.46-.333a.16.16 0 0 1 0 .318c-.087 0-.157-.07-.157-.158s.07-.157.157-.157zm-.495-.193c.087 0 .157.07.157.158s-.07.157-.157.157a.157.157 0 1 1 0-.315zm-.504.042c.087.001.157.072.157.16s-.072.157-.16.156a.157.157 0 1 1 .002-.315zm-.37-.425a.157.157 0 1 1 0 .314.157.157 0 1 1 0-.314zm-.484-.32a.157.157 0 1 1 0 .314.157.157 0 1 1 0-.314zm-.502-.187a.158.158 0 1 1 0 .315.158.158 0 0 1 0-.315zm-.515-.1a.157.157 0 1 1 0 .314.157.157 0 1 1 0-.314zM7.72 5.185c-.09.05-.196.047-.283-.006a.281.281 0 0 1 .01-.49.283.283 0 0 1 .274.496zm2.022-.957a.283.283 0 0 1-.352-.35c.028-.1.1-.175.212-.197.15-.032.296.06.334.207s-.048.298-.194.34zm2.35-.297c-.105.006-.205-.047-.26-.137s-.054-.203.001-.293a.284.284 0 0 1 .526.146.284.284 0 0 1-.266.283zm-2.75-.49c-.056 0-.108-.03-.136-.08s-.028-.11.001-.158.08-.078.137-.078a.157.157 0 1 1 0 .315zm.13-.563a.157.157 0 1 1 0-.315c.088 0 .158.07.158.158s-.07.157-.158.157zM7.523 4.36c-.087 0-.157-.07-.157-.158s.07-.157.157-.157a.157.157 0 1 1 0 .315zm.13-.563c-.056 0-.108-.03-.136-.08s-.028-.11 0-.157.08-.078.136-.078a.157.157 0 1 1 0 .314h-.001zm.235-.493c-.056 0-.108-.03-.136-.08s-.028-.11 0-.157.08-.078.137-.078a.157.157 0 1 1 0 .315h-.001zm.375-.44a.158.158 0 1 1 0-.316c.088 0 .158.07.158.158s-.07.158-.158.158zm.46-.333a.158.158 0 1 1 0-.315.158.158 0 0 1 0 .315zm.494-.193c-.056 0-.108-.03-.136-.08s-.028-.11.001-.158.08-.078.137-.078a.157.157 0 1 1 0 .315zm.505.042a.157.157 0 1 1 .158-.157c0 .088-.07.157-.158.157zm.37-.425a.157.157 0 1 1 0-.314c.088 0 .157.07.157.157s-.07.157-.157.157zm.483-.32c-.056 0-.108-.03-.136-.08s-.028-.11.001-.157.08-.078.137-.078a.157.157 0 1 1 0 .315h-.001zm.502-.186c-.056 0-.108-.03-.136-.08s-.028-.11 0-.157.08-.078.137-.078a.157.157 0 1 1 0 .315zm1.015 1.54c-.056 0-.108-.03-.136-.08s-.028-.11.001-.157.08-.078.136-.078c.087 0 .158.07.158.157S12.18 3 12.093 3l-.001-.001zm0-.57c-.056 0-.108-.03-.136-.08s-.028-.11.001-.158.08-.078.137-.078a.157.157 0 1 1 0 .315zm0-.57c-.087 0-.158-.07-.158-.16s.07-.158.16-.157.158.07.158.157-.07.158-.158.158zm-.5-.5c-.056 0-.108-.03-.136-.08s-.028-.11.001-.157.08-.078.136-.078a.157.157 0 1 1 0 .314zm5.146 3.33c.09.047.15.14.153.244s-.05.2-.14.252-.2.052-.288 0a.283.283 0 0 1 .274-.494zm-3.634.826a.158.158 0 1 1 .004-.316c.088.001.157.072.156.16s-.072.157-.16.156zM9.13 6.04c-.056 0-.108-.03-.136-.08s-.028-.11 0-.157.08-.078.137-.078a.157.157 0 1 1 0 .315zm1.95-.526c-.056 0-.108-.03-.136-.08s-.027-.11.001-.158.08-.078.137-.078a.159.159 0 0 1-.004.317z" fill="#fff"/><g fill="#ee334e"><path d="M13.264 4.382a.71.71 0 0 0 .156.227l-.434-.054a.66.66 0 0 0 .207-.182.536.536 0 0 0 .07.01zm-2.345 0a.347.347 0 0 0 .073-.01.645.645 0 0 0 .207.182l-.435.054a.66.66 0 0 0 .155-.227zm-.842.358l-.38.097a.61.61 0 0 0 .124-.304.61.61 0 0 0 .256.207zm-1.45.473a.65.65 0 0 0 .082-.2l.02-.004a.35.35 0 0 0 .104-.045c.06.04.127.07.197.09l-.404.16zm3.466-.967a.61.61 0 0 0 .199.267 8.757 8.757 0 0 0-.397 0 .61.61 0 0 0 .198-.267zm3.26.718a.34.34 0 0 0 .103.045l.022.005a.64.64 0 0 0 .082.199l-.404-.16c.07-.02.136-.05.196-.1l.001.001zm-.865-.127l-.38-.097a.61.61 0 0 0 .255-.207.61.61 0 0 0 .124.304zm.5-1.23a.322.322 0 0 0 .2-.257c.176.037.35.087.517.15.126.05.243.12.345.207a2.71 2.71 0 0 1 .16.775.435.435 0 0 0-.21.254.346.346 0 0 0 .112.452.28.28 0 0 1-.296-.295.354.354 0 1 0-.626-.252.28.28 0 0 1-.498-.162.36.36 0 0 0 .475-.29.345.345 0 0 0-.168-.44.38.38 0 0 0-.022-.143v.001z"/><path d="M9.952 2.908a3.12 3.12 0 0 1 1.876-.284v.04a.31.31 0 0 0 .066.409.33.33 0 0 0-.222.255.346.346 0 0 0-.272.384.36.36 0 0 0 .387.4.28.28 0 0 1-.532.006c.04-.154-.025-.317-.162-.398s-.312-.06-.427.05-.142.284-.066.425a.28.28 0 0 1-.517.132c.106-.018.2-.082.252-.176s.062-.206.023-.307a.348.348 0 0 0-.36-.305.35.35 0 0 0-.155-.16c.018-.16.055-.32.1-.472zm2.405-.284a3.12 3.12 0 0 1 1.875.284 2.06 2.06 0 0 1 .11.473.346.346 0 0 0-.156.16.347.347 0 0 0-.36.304.356.356 0 0 0 .276.483.28.28 0 0 1-.518-.132.355.355 0 0 0-.492-.476.372.372 0 0 0-.162.4.28.28 0 0 1-.532-.006c.107.01.213-.03.288-.108s.11-.185.098-.292a.345.345 0 0 0-.272-.384.33.33 0 0 0-.222-.255.31.31 0 0 0 .067-.409v-.04zM8.48 3.5a3.67 3.67 0 0 1 .516-.149c.023.115.102.21.2.256a.386.386 0 0 0-.022.143.346.346 0 0 0-.167.44.357.357 0 0 0 .474.29.28.28 0 0 1-.497.162c-.01-.154-.118-.283-.268-.32s-.306.025-.387.156-.07.3.03.417a.28.28 0 0 1-.297.295.345.345 0 0 0 .112-.45.426.426 0 0 0-.208-.255 2.73 2.73 0 0 1 .158-.774 1.18 1.18 0 0 1 .347-.209zm4.116 1.807l-.505.188-.504-.188.504-.187.505.187zm-3.8.682l-.045.176-.016.066L8.7 6.2l-.165-.092.044-.17.01-.037.057.02.153.056zm6.588 0l.212-.08.01.037.042.173-.166.092-.036.02-.062-.24z"/></g><path d="M14.487 4.837a.61.61 0 0 1-.124-.304.61.61 0 0 1-.255.207l.38.097zm.864.127a.698.698 0 0 1-.196.09l.404.16a.67.67 0 0 1-.082-.2l-.022-.004a.357.357 0 0 1-.104-.045zm-3.26-.718a.61.61 0 0 1-.198.267h.397a.61.61 0 0 1-.199-.267zm-3.466.967l.404-.16a.66.66 0 0 1-.197-.09.35.35 0 0 1-.104.046l-.02.005a.65.65 0 0 1-.082.199zm1.45-.473a.61.61 0 0 1-.255-.207.61.61 0 0 1-.123.304l.378-.097zm.843-.358a.66.66 0 0 1-.155.227l.435-.054a.656.656 0 0 1-.207-.182.583.583 0 0 1-.073.01zm2.345 0a.328.328 0 0 1-.07-.01.66.66 0 0 1-.208.182l.434.054a.66.66 0 0 1-.148-.212l-.008-.015zm3.474.307a.283.283 0 1 0-.27.495.283.283 0 0 0 .272-.495zm-2.155-1a.283.283 0 1 0-.137.548c.15.032.296-.06.334-.207s-.048-.298-.194-.34zm.258-.555c-.056 0-.108.03-.136.08s-.028.11.001.157.08.078.137.078c.087 0 .157-.07.157-.158s-.07-.157-.158-.157zm-.13-.563a.158.158 0 1 0 0 .315.158.158 0 0 0 0-.315zm1.95 1.484a.157.157 0 1 0 .158.157.156.156 0 0 0-.158-.157zm-.13-.562a.157.157 0 1 0 0 .314.157.157 0 1 0 0-.314zm-.236-.494a.16.16 0 0 0-.136.238.158.158 0 0 0 .294-.08.156.156 0 0 0-.158-.157zm-.374-.44a.158.158 0 1 0 0 .316c.088 0 .157-.07.157-.158s-.07-.158-.157-.158zm-.46-.333a.16.16 0 0 0 0 .318.158.158 0 1 0 0-.315zm-.495-.193c-.056 0-.108.03-.136.08s-.028.11.001.158.08.078.137.078c.087 0 .157-.07.157-.158s-.07-.157-.158-.157zm-.504.042c-.087 0-.157.07-.157.158s.07.157.157.157a.157.157 0 1 0 0-.315zm-.37-.425a.157.157 0 1 0 0 .314.157.157 0 1 0 0-.314zm-.484-.32c-.056 0-.108.03-.136.08s-.028.11.001.157.08.078.136.078a.157.157 0 1 0 0-.315zm-.502-.187c-.087 0-.157.07-.157.158s.07.157.158.157.157-.07.157-.158-.07-.157-.158-.157zm-.515-.1a.157.157 0 1 0 0 .314c.088 0 .157-.07.157-.157s-.07-.157-.157-.157zM7.72 5.185c.09-.047.15-.14.153-.244s-.05-.2-.14-.252-.2-.052-.288 0a.283.283 0 0 0 .274.494zm2.022-.957a.284.284 0 0 0 .132-.472.286.286 0 0 0-.273-.076c-.144.045-.228.195-.2.342s.185.237.333.205zm2.35-.297c.105.006.205-.047.26-.137s.054-.203-.001-.293a.284.284 0 0 0-.526.147c0 .15.117.273.267.282zm-2.75-.49a.157.157 0 1 0 0-.315c-.088 0-.158.07-.158.158s.07.157.158.157zm.13-.563a.157.157 0 1 0 0-.315c-.088 0-.158.07-.158.158s.07.157.158.157zM7.523 4.36c.087 0 .157-.07.157-.158s-.07-.157-.158-.157-.158.07-.158.157.07.158.158.158zm.13-.563a.157.157 0 1 0 0-.314.157.157 0 1 0 0 .314zm.235-.493a.157.157 0 1 0 .001-.315.157.157 0 0 0-.001.315zm.375-.44c.056 0 .108-.03.136-.08s.028-.11-.001-.157-.08-.078-.137-.078a.157.157 0 1 0 0 .315zm.46-.333a.16.16 0 0 0 .136-.238.158.158 0 0 0-.294.079c0 .087.07.158.157.158h.001zm.494-.193a.157.157 0 1 0-.158-.157c0 .088.07.157.158.157zm.505.042a.157.157 0 1 0 .001-.315.157.157 0 0 0-.001.315zm.37-.425c.056 0 .108-.03.136-.08s.028-.11-.001-.157-.08-.078-.137-.078a.157.157 0 1 0 0 .315h.001zm.483-.32a.157.157 0 1 0 0-.314c-.088 0-.157.07-.157.157s.07.157.157.157zm.502-.186a.157.157 0 1 0 0-.315c-.088 0-.158.07-.158.158s.07.157.158.157zm1.015 1.54a.157.157 0 1 0 0-.314.158.158 0 1 0 0 .316V2.99zm0-.57c.087 0 .157-.07.157-.158s-.07-.157-.157-.157a.157.157 0 1 0 0 .315zm0-.57a.158.158 0 1 0 0-.316.158.158 0 0 0 0 .315zm-.5-.5c.056 0 .108-.03.136-.08s.028-.11 0-.157-.08-.078-.136-.078c-.087 0-.157.07-.156.157s.07.157.158.157zm4.336 3.854a.39.39 0 0 0 .36-.005c-.2-.105-.32-.2-.225-.447a.33.33 0 0 1 .217-.232c-.076-.964-.345-1.425-1.222-1.862l-.065.018c.002.01.003.023.003.034a.32.32 0 0 1-.168.269c.157.032.3.104.3.293a.295.295 0 0 1-.243.285c.04.067.056.146.045.224a.283.283 0 0 1 .172.383c-.066.26-.224.285-.472.224-.034.162.05.326.203.39s.33.014.424-.122a.288.288 0 1 1 .496.2c-.018.14.052.28.177.348zm-4.08-3.522c0-.02.002-.042.005-.063-1.148-.084-1.97.695-2.082 1.796.088.03.157.098.187.185.078-.015.16.004.223.052s.105.12.113.2c.066.26-.06.358-.305.424.057.175.24.276.42.232.154-.04.26-.18.26-.338-.07-.113-.053-.26.04-.354s.24-.11.354-.04.163.21.12.335c.04.152.18.257.336.257a.353.353 0 0 0 .35-.33c-.255-.002-.4-.066-.4-.334-.012-.08.01-.16.06-.22s.123-.1.203-.106c.044-.236.164-.25.362-.284.198.033.318.048.363.284.08.005.153.044.202.106s.07.142.06.22c0 .267-.145.332-.4.334a.348.348 0 0 0 .493.4.358.358 0 0 0 .19-.327c-.042-.126.008-.265.12-.335s.26-.053.354.04.11.24.04.354a.348.348 0 0 0 .68.106c-.247-.066-.372-.165-.305-.424a.284.284 0 0 1 .335-.252.3.3 0 0 1 .187-.185c-.113-1.102-.934-1.88-2.083-1.796a.25.25 0 0 1-.042.21v.277a.245.245 0 0 1 0 .293l.006.286c.028.04.043.09.043.138 0 .164-.122.214-.246.268-.123-.054-.245-.104-.245-.268 0-.053.017-.104.048-.146V2.41a.245.245 0 0 1 0-.293V1.84a.25.25 0 0 1-.048-.147zM8.12 4.76c.094.246-.014.342-.225.447a.39.39 0 0 0 .36.005.348.348 0 0 0 .178-.348.285.285 0 0 1 .282-.475.29.29 0 0 1 .212.276c.094.137.272.188.424.122s.237-.23.203-.392c-.248.062-.405.035-.472-.223-.032-.073-.03-.156.001-.23s.095-.128.17-.153a.344.344 0 0 1 .046-.224.293.293 0 0 1-.243-.285c0-.2.14-.26.298-.293a.322.322 0 0 1-.168-.27c0-.01.002-.022-.063-.046-.895.44-1.144.883-1.22 1.857a.33.33 0 0 1 .216.232zm7.59.913a8.54 8.54 0 0 0-7.233-.003.14.14 0 0 1-.189-.072c-.034-.074.002-.13.033-.194a.57.57 0 0 1-.585-.081c-.36.243-.776-.258-.504-.486a.29.29 0 0 1 .059-.466.307.307 0 0 1-.055-.17c0-.2.14-.26.297-.294a.32.32 0 0 1-.167-.27c0-.193.15-.273.315-.29-.05-.057-.077-.13-.08-.204s.03-.148.084-.202.126-.083.202-.083a.5.5 0 0 1 .144.03.41.41 0 0 1-.055-.183.285.285 0 0 1 .286-.285.38.38 0 0 1 .188.06.798.798 0 0 1-.014-.108.285.285 0 0 1 .286-.285c.076 0 .148.03.205.08.032-.15.116-.274.3-.274a.3.3 0 0 1 .263.169.306.306 0 0 1 .24-.126c.044.002.086.01.128.022a.415.415 0 0 1-.043-.162c0-.157.128-.285.285-.285a.37.37 0 0 1 .216.083.62.62 0 0 1-.017-.12c0-.157.128-.284.285-.284a.32.32 0 0 1 .212.088c.034-.15.116-.274.3-.274a.31.31 0 0 1 .236.117.3.3 0 0 1 .28-.207.34.34 0 0 1 .113.023.462.462 0 0 1 .3-.177v-.3h-.24V.284h.24V.067h.19v.217h.24V.46h-.24v.302a.51.51 0 0 1 .29.177.34.34 0 0 1 .114-.023.3.3 0 0 1 .279.207.31.31 0 0 1 .236-.117c.174 0 .257.124.3.274.058-.054.133-.085.212-.088s.15.03.202.083.084.126.084.202a.75.75 0 0 1-.016.118.364.364 0 0 1 .214-.082c.158 0 .285.127.286.285a.42.42 0 0 1-.043.162.55.55 0 0 1 .127-.022c.095.002.184.05.24.126a.3.3 0 0 1 .264-.169c.174 0 .258.125.3.274.057-.05.13-.078.205-.08s.15.03.202.083.084.126.084.202a.827.827 0 0 1-.014.11.358.358 0 0 1 .188-.06c.157 0 .285.127.285.285a.41.41 0 0 1-.055.183.586.586 0 0 1 .144-.03.284.284 0 0 1 .286.286.314.314 0 0 1-.08.204c.166.016.315.096.315.29a.325.325 0 0 1-.167.27c.157.033.298.104.298.293a.3.3 0 0 1-.056.17.29.29 0 0 1 .06.466.293.293 0 0 1-.061.46.343.343 0 0 1-.444.026.57.57 0 0 1-.585.081l.033.07c.026.054.016.117-.024.16s-.103.058-.16.037zm-6.86.286l-.234-.086-.017-.037c-.015.007-.03.012-.047.014s-.04-.008-.048-.028.001-.042.02-.052a8.417 8.417 0 0 1 7.132 0c.018.01.026.032.02.05s-.026.032-.047.03-.033-.007-.048-.014l-.017.037-.234.086.07.268-.02.046c.123.058.037.144-.013.12a7.735 7.735 0 0 0-6.55 0c-.026.01-.055-.003-.068-.028s-.005-.055.018-.07a.198.198 0 0 1 .038-.02l-.022-.046.07-.268zm1.294-.197l.5-.347-.604-.063-.5.346.604.064zm4.908.323c.076.005.148-.032.188-.097s.04-.146 0-.21-.112-.102-.188-.097c-.106.007-.19.096-.19.203s.082.195.19.202zM11.08 5.56a.202.202 0 1 0 0-.404.202.202 0 1 0 0 .404zm-1.95.526c.076.005.148-.032.188-.097s.04-.146 0-.21-.112-.102-.188-.097c-.106.007-.19.096-.19.202s.082.195.19.203zm3.974-.526c.112 0 .202-.09.202-.203s-.09-.202-.203-.202-.203.09-.203.202.09.203.203.203zm.934.203l.604-.064-.498-.346-.604.063.498.347zm-1.312-.457l-.634-.235-.634.235.634.236.634-.236zM5.524 13.35a6.57 6.57 0 0 0 11.207 4.665 6.57 6.57 0 0 0-4.639-11.218 6.58 6.58 0 0 0-6.568 6.553zm13.85 0a7.284 7.284 0 1 1-14.565.02 7.283 7.283 0 1 1 14.566-.02h-.001zm-8.238-3.088l.95.967.9-.938a4.007 4.007 0 0 0-.935-.154 3.46 3.46 0 0 0-.905.125zm2.5-.68l1.397-1.438a5.968 5.968 0 0 1 3.022 5.182 5.888 5.888 0 0 1-1.375 3.795l-.65-.65c.732-.893 1.2-1.782 1.2-3.2 0-1.52-.796-3.212-2.066-4.088l-.838.855a4.03 4.03 0 0 1 1.058 1.1l-.64.552c-.246-.422-.6-.78-1.003-1.042l-1.668 1.757-1.73-1.78a3.194 3.194 0 0 0-1.45 2.63c-.03 1.474.928 2.503 2.27 2.95V13.24h2.05v.6h-1.256v.792h1.24v.697h-1.24v1c.918.047 1.895-.484 2.5-1.142l.614.62a4.08 4.08 0 0 1-3.104 1.375v.913h-.794v-1.01a4.006 4.006 0 0 1-3.095-3.923c.016-1.298.707-2.36 1.713-3.116l-.85-.877c-1.316 1.075-2.024 2.384-2.084 4.1a4.68 4.68 0 0 0 1.227 3.227l-.568.58a5.65 5.65 0 0 1-1.405-3.748A5.98 5.98 0 0 1 9.12 8.161l1.413 1.472a4.34 4.34 0 0 1 1.56-.294 4.21 4.21 0 0 1 1.496.294l.05-.05h-.002z" fill="#febe10"/><path d="M21.4 23.952h-.694v-.656h.693v.656h.001zm0 .316v2.676h-.694v-2.676h.694zm-2.438 0h.663v.464c.153-.273.3-.535.73-.535.045 0 .1.004.134.01v.717a1.095 1.095 0 0 0-.198-.01c-.54 0-.637.342-.637.638v1.392h-.693v-2.676zm-.4-.936v3.612h-.677v-.337a.86.86 0 0 1-.772.408c-.78 0-1.105-.705-1.105-1.44 0-.924.512-1.378 1.1-1.378a.843.843 0 0 1 .762.418l.01-1.283h.692zm-1.845 2.294c0 .317.124.8.57.8.44 0 .613-.372.613-.77 0-.427-.12-.86-.594-.86-.44 0-.59.398-.59.82zm-.968-.654v1.448c0 .317.07.387.153.418v.106h-.747a1.21 1.21 0 0 1-.064-.316 1.063 1.063 0 0 1-.85.387.741.741 0 0 1-.802-.78c0-.524.326-.8.767-.856l.623-.095c.11-.015.242-.06.242-.21 0-.297-.277-.312-.455-.312a.374.374 0 0 0-.425.373h-.668c.08-.82.64-.936 1.177-.936.37 0 1.05.116 1.05.775zm-.678 1v-.34a.992.992 0 0 1-.47.145c-.257.046-.47.1-.47.403-.005.087.027.172.088.234s.147.094.234.088a.576.576 0 0 0 .618-.53zm-1.885.962h-.692V25.32c0-.398-.172-.53-.375-.53-.344 0-.467.232-.467.55v1.604h-.693v-1.6c0-.226 0-.543-.414-.543-.325 0-.43.232-.43.524v1.63h-.692v-2.677h.663v.392a.81.81 0 0 1 .754-.463.75.75 0 0 1 .731.428.82.82 0 0 1 .7-.428c.514 0 .914.307.914.896v1.85zm-4.652 0V23.33h.433v3.613l-.433.001zm-2.226-1.832H5.9c.02-.63.428-.875 1.066-.875.21 0 .96.06.96.734v1.516c0 .11.054.156.143.156a.864.864 0 0 0 .143-.02v.322a.772.772 0 0 1-.237.05c-.384 0-.443-.2-.458-.402-.23.28-.573.437-.934.427a.75.75 0 0 1-.81-.76c0-.22.065-.735.784-.825l.717-.09c.104-.01.228-.05.228-.313 0-.276-.198-.428-.61-.428-.495 0-.564.308-.594.5v-.001zm1.193.922V25.6c-.07.055-.178.095-.716.166-.213.03-.554.096-.554.428a.41.41 0 0 0 .47.459c.405 0 .8-.267.8-.62zm-2.414.086H5.5c-.054.3-.218.548-.458.72a1.1 1.1 0 0 1-.7.18c-.727 0-1.156-.558-1.156-1.317 0-.817.385-1.466 1.24-1.466.746 0 1.1.604 1.1 1.536H3.65c0 .55.252.865.75.865a.66.66 0 0 0 .668-.518zm-1.418-.697h1.438c-.025-.4-.193-.8-.722-.8a.77.77 0 0 0-.716.79zm-3.17-.03v1.55h-.48V23.33h1.64c.582 0 1.165.206 1.165.97a.888.888 0 0 1-.5.865c.202.085.404.176.424.68l.03.654c.005.202.03.277.178.363v.08H2.36a4.53 4.53 0 0 1-.084-.906c0-.297-.06-.645-.636-.645H.48v.001zm0-1.644v1.226h1.11c.35 0 .72-.1.72-.623 0-.558-.4-.603-.636-.603H.48zm21.922 1.877c0 .317.124.8.57.8.44 0 .613-.372.613-.77 0-.427-.12-.86-.594-.86-.44 0-.59.398-.59.82zm1.846-2.294v3.612h-.678v-.337a.86.86 0 0 1-.772.408c-.78 0-1.104-.705-1.104-1.44 0-.924.51-1.378 1.1-1.378a.84.84 0 0 1 .761.418l.01-1.283h.693zm-4.656-9.98a7.5 7.5 0 0 1-11.241 6.51 7.5 7.5 0 0 1 3.731-14 7.5 7.5 0 0 1 7.51 7.49zm-.217 0c.007-2.947-1.763-5.608-4.483-6.74S9.035 6.095 6.95 8.177s-2.713 5.215-1.587 7.94 3.783 4.5 6.73 4.5a7.29 7.29 0 0 0 7.283-7.265zm-13.634 0a6.35 6.35 0 0 0 10.835 4.509 6.35 6.35 0 0 0-4.484-10.845 6.36 6.36 0 0 0-6.35 6.336H5.74zm-.217 0a6.57 6.57 0 0 1 6.553-6.585 6.57 6.57 0 0 1 6.585 6.553 6.57 6.57 0 0 1-6.553 6.585 6.57 6.57 0 0 1-6.585-6.553zm7.336-1.448l3.554 3.657c.42-.687.633-1.482.608-2.288 0-1.643-.925-3.14-1.822-3.805l-.536.548a4.12 4.12 0 0 1 1.011 1.168l-.987.85a2.826 2.826 0 0 0-.907-1.1l-.92.97zm4.503 4.633a6.079 6.079 0 0 1-2.773 2.456L12.94 17.3a4.19 4.19 0 0 1-.755.094v.916h-1.228v-1.057a4.22 4.22 0 0 1-3.096-4.095 3.76 3.76 0 0 1 .123-.907l-.606-.614a5.32 5.32 0 0 0-.302 1.628 4.408 4.408 0 0 0 1.318 3.216l-.886.902c-1.042-1.17-1.613-2.483-1.613-4.066 0-2.3 1.27-4.324 3.264-5.437l1.43 1.5a4.56 4.56 0 0 1 1.504-.258 4.4 4.4 0 0 1 1.446.26l1.455-1.508a6.19 6.19 0 0 1 3.28 5.453 5.939 5.939 0 0 1-.91 3.2zm-6.406-1.244l-1.834-1.866c.05 1.12.776 2.1 1.834 2.473v-.607zm2.68-5.71l-.05.05a4.21 4.21 0 0 0-1.497-.294 4.34 4.34 0 0 0-1.56.294L9.12 8.16a5.98 5.98 0 0 0-3.007 5.166 5.65 5.65 0 0 0 1.405 3.748l.568-.58a4.68 4.68 0 0 1-1.227-3.226c.06-1.707.768-3.016 2.084-4.09l.85.877c-1.006.757-1.697 1.818-1.713 3.116a4.006 4.006 0 0 0 3.095 3.923v1h.794V17.2a4.08 4.08 0 0 0 3.104-1.375l-.613-.62c-.596.66-1.573 1.2-2.49 1.142v-1h1.24v-.696h-1.24v-.792h1.255v-.6h-2.05v2.964c-1.343-.446-2.3-1.475-2.27-2.95a3.194 3.194 0 0 1 1.45-2.628l1.73 1.78 1.668-1.757c.412.262.756.62 1.002 1.042l.64-.552a4.04 4.04 0 0 0-1.058-1.1l.838-.855c1.27.876 2.065 2.57 2.065 4.088 0 1.418-.477 2.307-1.2 3.2l.652.65a5.893 5.893 0 0 0 1.375-3.795 5.969 5.969 0 0 0-3.022-5.182l-1.398 1.438zm-2.5.68c.295-.082.6-.123.905-.125a4.06 4.06 0 0 1 .935.154l-.9.938-.95-.967zm.432.13l.515.525.48-.506a3.29 3.29 0 0 0-.53-.057c-.156-.002-.31.01-.464.04zm3.818-4.405l.062.24.036-.02.166-.09-.052-.2-.212.08zm.326-.314a.145.145 0 0 0 .183-.199l-.033-.07a.57.57 0 0 0 .585-.081c.135.1.322.1.444-.027.08-.045.132-.125.144-.215s-.02-.18-.084-.245a.29.29 0 0 0-.059-.465.308.308 0 0 0 .056-.17c0-.2-.14-.26-.298-.294a.32.32 0 0 0 .167-.27c0-.193-.15-.273-.314-.29.048-.057.076-.13.08-.204s-.03-.148-.084-.202-.126-.083-.202-.083a.506.506 0 0 0-.144.03.41.41 0 0 0 .055-.183.286.286 0 0 0-.285-.285.38.38 0 0 0-.188.06.798.798 0 0 0 .014-.108.285.285 0 0 0-.286-.285.312.312 0 0 0-.205.08c-.032-.15-.116-.274-.3-.274a.3.3 0 0 0-.264.169.306.306 0 0 0-.24-.126.55.55 0 0 0-.127.022.42.42 0 0 0 .043-.162.286.286 0 0 0-.286-.285.373.373 0 0 0-.214.082.75.75 0 0 0 .016-.118.285.285 0 0 0-.286-.285.32.32 0 0 0-.212.088c-.033-.15-.116-.274-.3-.274a.31.31 0 0 0-.236.117.3.3 0 0 0-.279-.207.34.34 0 0 0-.114.023.51.51 0 0 0-.29-.177V.46h.24V.284h-.24V.067h-.19v.217h-.24V.46h.24v.302a.574.574 0 0 0-.3.177.351.351 0 0 0-.115-.023.3.3 0 0 0-.279.207.31.31 0 0 0-.236-.117c-.174 0-.256.125-.3.274a.329.329 0 0 0-.212-.088.286.286 0 0 0-.285.285c.002.04.008.08.017.12a.367.367 0 0 0-.216-.083.286.286 0 0 0-.285.285c.003.056.018.11.043.162a.536.536 0 0 0-.127-.022.308.308 0 0 0-.24.126.3.3 0 0 0-.265-.169c-.173 0-.257.125-.3.274-.057-.05-.13-.078-.204-.08s-.15.03-.202.083-.084.126-.084.202a.827.827 0 0 0 .014.11.377.377 0 0 0-.188-.06.284.284 0 0 0-.286.285.41.41 0 0 0 .055.183.586.586 0 0 0-.144-.03.285.285 0 0 0-.285.286c0 .076.03.147.08.204-.165.016-.315.096-.315.29a.325.325 0 0 0 .167.27c-.156.033-.297.104-.297.293a.31.31 0 0 0 .055.171.29.29 0 0 0-.059.466c-.272.228.144.73.504.486a.57.57 0 0 0 .585.081c-.03.065-.067.12-.033.194a.14.14 0 0 0 .19.072 8.536 8.536 0 0 1 7.233.002v.001zm-6.914.314l-.153-.056-.057-.02-.01.037-.043.17.165.092.037.02.016-.066.045-.176zm-.096.274l-.22-.122.054-.218a.119.119 0 0 1-.084-.172.213.213 0 0 1-.24-.24.616.616 0 0 1-.475-.1c-.385.23-.84-.32-.593-.578a.35.35 0 0 1 .06-.477c-.04-.088-.044-.19-.008-.28s.107-.16.197-.197a.351.351 0 0 1 .179-.578c-.052-.11-.044-.237.02-.34s.177-.164.298-.164l.033.001a.353.353 0 1 1 .45-.425c.001-.123.066-.236.17-.3s.235-.067.344-.01c.043-.12.147-.207.272-.228s.252.026.333.124a.35.35 0 0 1 .232-.087l.024.001a.61.61 0 0 1 .446-.96.61.61 0 0 1 .554.258.354.354 0 0 1 .548-.157.35.35 0 0 1 .391-.152.56.56 0 0 1 .208-.138l.037-.012V.528h-.24V.216h.24V0h.326v.216h.24v.312h-.24v.184l.036.012a.56.56 0 0 1 .208.138c.15-.04.31.02.39.152.09-.07.205-.092.314-.06s.195.11.234.217a.351.351 0 0 1 .524.302c.12-.05.26-.027.358.057s.145.216.118.343h.025a.35.35 0 0 1 .231.086.352.352 0 0 1 .605.104.353.353 0 0 1 .515.31.353.353 0 1 1 .448.424l.033-.001a.35.35 0 0 1 .318.503.352.352 0 0 1 .179.578c.1.036.16.108.196.198s.032.19-.01.278a.35.35 0 0 1 .061.477c.157.163.02.42-.1.522a.416.416 0 0 1-.482.056.605.605 0 0 1-.476.1.211.211 0 0 1-.24.24.118.118 0 0 1-.084.173l.053.218-.22.122c.03.037.035.087.016.13a.12.12 0 0 1-.16.063 7.68 7.68 0 0 0-6.493 0 .12.12 0 0 1-.16-.063.125.125 0 0 1 .016-.13zm.15-.302l-.07.268.022.046-.04.02c-.028.014-.038.048-.024.076s.048.038.076.024a7.75 7.75 0 0 1 6.55 0c.05.023.136-.063.013-.12l.02-.046-.068-.268.234-.086.017-.037c.015.007.03.012.048.014s.04-.01.047-.03-.002-.04-.02-.05a8.417 8.417 0 0 0-7.132 0c-.018.01-.027.032-.02.052s.027.032.048.028.032-.007.047-.014l.017.037.234.086zm5.356-3.117a1.78 1.78 0 0 0-1.803-1.152.31.31 0 0 1-.048.167v.237a.31.31 0 0 1 0 .334v.15c.63-.1 1.274-.007 1.85.264zm-1.85-.178a.31.31 0 0 1-.067.409.33.33 0 0 1 .222.255.346.346 0 0 1 .272.384.359.359 0 0 1-.386.4.28.28 0 0 0 .532.006c-.042-.154.024-.317.162-.4s.313-.06.427.05.14.285.065.426a.28.28 0 0 0 .518.132c-.106-.018-.2-.082-.252-.176s-.062-.206-.023-.307a.347.347 0 0 1 .36-.305.346.346 0 0 1 .156-.16 2.13 2.13 0 0 0-.11-.472 3.12 3.12 0 0 0-1.875-.284v.04zm-.5-.974a.25.25 0 0 0 .048.147v.277a.245.245 0 0 0 0 .293v.278a.253.253 0 0 0-.048.146c0 .164.122.214.245.268.124-.054.246-.104.246-.268a.242.242 0 0 0-.043-.138l-.006-.286a.245.245 0 0 0 0-.293v-.277a.25.25 0 0 0 .049-.147.49.49 0 0 0-.007-.063c1.15-.084 1.97.694 2.083 1.796a.299.299 0 0 0-.187.185.282.282 0 0 0-.335.252c-.067.26.058.358.305.424a.353.353 0 0 1-.42.232.349.349 0 0 1-.26-.338c.07-.113.053-.26-.04-.354a.287.287 0 0 0-.474.295.348.348 0 0 1-.684-.072c.255-.002.4-.067.4-.334.012-.08-.01-.16-.06-.22s-.123-.1-.202-.106c-.045-.236-.165-.25-.363-.284-.198.033-.318.048-.362.284a.283.283 0 0 0-.263.326c0 .268.146.332.4.334a.352.352 0 0 1-.348.33.347.347 0 0 1-.335-.257c.042-.126-.008-.265-.12-.335s-.26-.053-.354.04-.11.24-.04.354c0 .16-.107.298-.26.337a.353.353 0 0 1-.42-.232c.246-.066.37-.165.305-.424-.008-.08-.05-.152-.113-.2s-.145-.067-.223-.052a.299.299 0 0 0-.187-.185c.113-1.1.934-1.88 2.082-1.796a.62.62 0 0 0-.005.063zM9.952 2.908a1.644 1.644 0 0 0-.1.473c.07.034.123.1.157.16a.349.349 0 0 1 .36.304.356.356 0 0 1-.275.483.28.28 0 0 0 .517-.132.354.354 0 1 1 .654-.077.28.28 0 0 0 .532-.006.36.36 0 0 1-.387-.4.345.345 0 0 1 .272-.384.33.33 0 0 1 .222-.255.31.31 0 0 1-.066-.409v-.04a3.12 3.12 0 0 0-1.876.284zM11.78 1.7a1.78 1.78 0 0 0-1.802 1.152 3.192 3.192 0 0 1 1.85-.265v-.15a.313.313 0 0 1 0-.333v-.237a.327.327 0 0 1-.048-.167zm3.552 3.205l.02-.015a.32.32 0 0 0 .183.073.6.6 0 0 0 .154.318l-.038.053-.64-.252.01-.065a.587.587 0 0 0 .31-.112zm.02.068a.698.698 0 0 1-.196.09 8.69 8.69 0 0 1 .404.16.67.67 0 0 1-.082-.2l-.022-.004a.357.357 0 0 1-.104-.045zm-3.292-.857h.067c.026.18.14.335.304.413l-.016.064a9.32 9.32 0 0 0-.643 0l-.016-.064a.543.543 0 0 0 .304-.413zm.033.14a.61.61 0 0 1-.198.266 10.39 10.39 0 0 1 .397 0 .61.61 0 0 1-.199-.267v.001zm-3.558 1.08l-.04-.054a.6.6 0 0 0 .155-.318.315.315 0 0 0 .182-.073.61.61 0 0 0 .332.127l.008.065-.638.253zm.1-.113a9.01 9.01 0 0 1 .405-.16.66.66 0 0 1-.197-.09.35.35 0 0 1-.104.046l-.02.005a.65.65 0 0 1-.082.199zm1.587-.5v.066a8.78 8.78 0 0 0-.614.157l-.03-.058a.54.54 0 0 0 .187-.471L9.83 4.4c.07.166.216.287.393.323zm-.135.027a.61.61 0 0 1-.256-.207.61.61 0 0 1-.123.304 9.13 9.13 0 0 1 .379-.097zm.57-.044l-.023-.062a.6.6 0 0 0 .248-.321l.04.002a.362.362 0 0 0 .108-.02.6.6 0 0 0 .321.25l-.007.065a8.75 8.75 0 0 0-.686.086zm.272-.314a.66.66 0 0 1-.155.227 8.68 8.68 0 0 1 .435-.054.656.656 0 0 1-.207-.182.583.583 0 0 1-.073.01zm1.93.228l-.007-.065a.6.6 0 0 0 .322-.25.35.35 0 0 0 .107.02l.04-.002c.043.133.13.246.25.32l-.024.062a8.85 8.85 0 0 0-.687-.086zm.414-.228a.328.328 0 0 1-.07-.01.66.66 0 0 1-.208.182 8.8 8.8 0 0 1 .434.054.66.66 0 0 1-.148-.212l-.008-.015zm1.354.496l-.03.058a8.5 8.5 0 0 0-.615-.157v-.066a.545.545 0 0 0 .394-.323l.064.017c-.02.178.05.355.188.47zm-.13-.04a.61.61 0 0 1-.124-.305.61.61 0 0 1-.255.207l.38.097zm.096-1.16a.283.283 0 1 0-.137.548c.15.032.296-.06.334-.207s-.048-.298-.194-.34zm.012-.043a.329.329 0 1 1-.131.644.329.329 0 0 1 .131-.644zm.246-.512c-.056 0-.108.03-.136.08s-.028.11.001.157.08.078.137.078c.087 0 .157-.07.157-.158s-.07-.157-.158-.157zm0-.045c.112 0 .202.09.202.203s-.09.202-.203.202-.203-.09-.203-.202.09-.203.203-.203zm-.13-.518a.157.157 0 1 0-.001.315.157.157 0 0 0 .001-.315zm0-.045a.203.203 0 1 1-.001 0zm1.95 1.53c-.087 0-.157.07-.157.158s.07.157.157.157a.157.157 0 1 0 0-.315zm0-.045a.203.203 0 1 1 0 .405.203.203 0 0 1 0-.405zm-.13-.517a.157.157 0 1 0 0 .314.157.157 0 1 0 0-.314zm0-.045a.202.202 0 1 1-.002.403.203.203 0 1 1 0-.406h.001zm-.236-.45a.16.16 0 0 0-.136.238.158.158 0 0 0 .294-.08.156.156 0 0 0-.158-.157zm0-.045a.202.202 0 1 1-.002.403c-.106-.007-.19-.096-.19-.202s.082-.195.19-.203zm-.374-.394a.158.158 0 1 0 0 .315.158.158 0 0 0 0-.315zm0-.045a.203.203 0 1 1-.002 0h.001zm-.46-.288a.157.157 0 1 0 .158.157.156.156 0 0 0-.158-.157zm0-.045c.076-.005.148.032.188.097s.04.146 0 .21-.112.102-.188.097a.203.203 0 1 1 0-.406zm-.495-.148c-.087 0-.157.07-.157.158s.07.157.158.157a.16.16 0 0 0 .136-.238.158.158 0 0 0-.137-.078zm0-.045a.202.202 0 1 1-.203.202c0-.113.09-.202.203-.202zm-.504.087c-.087 0-.157.07-.157.158s.07.157.157.157a.157.157 0 1 0 0-.315zm0-.045c.112.001.202.092.202.204s-.092.202-.203.2a.203.203 0 0 1 .002-.405zm-.37-.38a.158.158 0 1 0 0 .315.158.158 0 0 0 0-.315zm0-.045a.203.203 0 1 1 0 .405.203.203 0 0 1 0-.405zm-.484-.276a.16.16 0 0 0-.136.238.158.158 0 0 0 .295-.079.158.158 0 0 0-.158-.158zm0-.045a.202.202 0 1 1 0 .405c-.113 0-.203-.09-.203-.203s.09-.202.203-.202zm-.502-.14c-.056 0-.108.03-.136.08s-.028.11 0 .157.08.078.136.078c.087 0 .157-.07.157-.158s-.07-.157-.158-.157zm0-.046a.202.202 0 1 1 0 .405c-.113 0-.202-.09-.202-.203s.09-.202.202-.202zm-.515-.044a.157.157 0 1 0 0 .314.157.157 0 1 0 0-.314zm0-.045c.112 0 .202.1.202.202s-.1.202-.202.202-.202-.1-.202-.202.1-.202.202-.202zM7.72 5.184c.09-.047.15-.14.153-.244s-.05-.2-.14-.252-.2-.052-.288 0a.283.283 0 0 0 .274.494zm.022.04a.328.328 0 0 1-.488-.294.32.32 0 0 1 .17-.28.33.33 0 0 1 .446.129.33.33 0 0 1-.129.446zm2-.997a.283.283 0 1 0-.141-.547c-.144.045-.228.195-.2.342s.185.237.333.205zm.012.044c-.114.03-.234-.005-.316-.088s-.113-.205-.082-.318.12-.2.235-.23a.33.33 0 0 1 .399.237.33.33 0 0 1-.236.399zm2.338-.34a.284.284 0 0 0 .245-.425.282.282 0 0 0-.245-.14.284.284 0 0 0 .001.565zm0 .044c-.12.006-.236-.055-.3-.16s-.062-.234.001-.338.178-.164.3-.157a.329.329 0 0 1 0 .655zm-2.75-.535a.157.157 0 1 0 0-.315c-.088 0-.158.07-.158.158s.07.157.158.157zm0 .045a.203.203 0 1 1 .002 0zm.13-.608a.157.157 0 1 0 0-.315c-.088 0-.158.07-.158.158s.07.157.158.157zm0 .045a.203.203 0 0 1-.174-.304.204.204 0 0 1 .379.102c0 .112-.09.203-.203.203zM7.523 4.36c.087 0 .157-.07.157-.158s-.07-.157-.158-.157-.158.07-.158.157.07.158.158.158zm0 .045c-.112 0-.202-.09-.202-.203S7.41 4 7.523 4s.203.09.203.202-.09.203-.203.203zm.13-.608a.157.157 0 1 0 0-.314.157.157 0 1 0 0 .314zm0 .046c-.112 0-.203-.09-.203-.203s.09-.203.203-.203.203.09.203.203-.09.203-.203.203zm.235-.54a.157.157 0 1 0 0-.314c-.087 0-.157.07-.157.158s.07.157.157.157zm0 .046a.202.202 0 1 1 .002-.403.203.203 0 1 1 0 .406h-.001zm.375-.484c.056 0 .108-.03.136-.08s.028-.11-.001-.157-.08-.078-.137-.078a.157.157 0 1 0 0 .315zm0 .045c-.112 0-.203-.09-.203-.203s.09-.203.203-.203.203.09.203.203-.09.203-.203.203zm.46-.378c.087 0 .157-.07.157-.158s-.07-.157-.158-.157-.157.07-.157.157.07.158.157.158h.001zm0 .045c-.076.005-.148-.032-.188-.097s-.04-.146 0-.21.112-.102.188-.097c.106.007.19.096.19.202s-.082.195-.19.203zm.494-.238a.157.157 0 1 0-.158-.157c0 .088.07.157.158.157zm0 .045a.203.203 0 1 1 .205-.203c0 .112-.09.203-.203.203zm.505-.003a.157.157 0 1 0 .001-.315.157.157 0 0 0-.001.315zm0 .045a.203.203 0 0 1-.174-.304.204.204 0 0 1 .176-.1c.112 0 .202.09.202.203s-.09.202-.203.202zm.37-.47c.056 0 .108-.03.136-.08s.028-.11-.001-.157-.08-.078-.137-.078a.157.157 0 1 0 0 .315h.001zm0 .045C9.98 2 9.9 1.9 9.9 1.8s.09-.202.203-.202.202.09.202.202-.09.202-.202.202zm.483-.366a.157.157 0 1 0 0-.314c-.088 0-.157.07-.157.157s.07.157.157.157zm0 .045a.203.203 0 1 1 .002 0h-.001zm.502-.23a.158.158 0 1 0 0-.316c-.088 0-.158.07-.158.158s.07.157.158.157zm0 .044a.203.203 0 1 1 .001 0zM12.092 3c.087 0 .157-.07.157-.158s-.07-.158-.157-.158a.158.158 0 1 0 0 .316zm0 .045c-.112-.001-.202-.092-.202-.203s.092-.202.204-.202a.203.203 0 0 1-.002.405zm0-.616c.087 0 .157-.07.157-.158s-.07-.157-.157-.157a.157.157 0 1 0 0 .315zm0 .045a.202.202 0 1 1 .002-.403c.106.007.19.096.19.202s-.082.195-.19.203zm0-.616c.087 0 .157-.07.157-.158s-.07-.157-.157-.157a.157.157 0 1 0 0 .315zm0 .045a.203.203 0 1 1 .205-.203c0 .112-.09.203-.203.203zm-.5-.534c.056 0 .108-.03.136-.08s.028-.11 0-.157-.08-.078-.136-.078c-.087 0-.157.07-.156.157s.07.157.158.157zm0 .045c-.072 0-.14-.04-.174-.102s-.035-.14.001-.202.103-.1.175-.1c.112.001.202.09.2.203s-.09.202-.203.2zm5.146 3.285a.283.283 0 1 0-.27.495.283.283 0 0 0 .272-.495zm.022-.04c.103.057.167.164.17.28a.329.329 0 1 1-.616-.153.327.327 0 0 1 .446-.128zm-8.64.112a.33.33 0 0 0-.216-.232c.076-.974.325-1.416 1.21-1.86.076.028.074.04.074.05a.322.322 0 0 0 .168.27c-.157.032-.298.104-.298.293.002.14.104.26.243.285a.344.344 0 0 0-.046.224c-.076.025-.138.08-.17.153s-.033.156-.001.23c.067.258.224.285.472.224.034.162-.05.326-.203.39s-.33.014-.424-.122a.287.287 0 1 0-.494.199.347.347 0 0 1-.177.348.39.39 0 0 1-.361-.005c.21-.105.32-.2.225-.447zm.013-1.053a2.73 2.73 0 0 0-.158.774c.1.053.176.145.208.255a.344.344 0 0 1-.112.45.28.28 0 0 0 .297-.295.355.355 0 0 1 .479-.514c.095.062.14.157.147.262a.28.28 0 0 0 .497-.162.358.358 0 0 1-.474-.29.346.346 0 0 1 .167-.44.383.383 0 0 1 .022-.143.319.319 0 0 1-.2-.256 3.68 3.68 0 0 0-.516.15 1.2 1.2 0 0 0-.347.208zm.988-.968c-.493.255-.782.517-.95.88a1.24 1.24 0 0 1 .292-.163 3.87 3.87 0 0 1 .527-.152V3.28c0-.144.087-.273.22-.327a.35.35 0 0 1-.09-.214zm6.806 2.473a.347.347 0 0 1-.177-.348c.09-.093.104-.234.038-.345s-.197-.164-.322-.13-.21.146-.212.275c-.094.137-.272.188-.424.122s-.237-.23-.203-.392c.248.062.406.036.472-.223.03-.073.03-.156-.002-.23s-.094-.128-.17-.153a.34.34 0 0 0-.045-.224.293.293 0 0 0 .243-.285c0-.19-.142-.26-.3-.293a.32.32 0 0 0 .168-.27l-.003-.033.065-.018c.877.437 1.146.898 1.222 1.862a.33.33 0 0 0-.217.232c-.094.247.015.342.226.447a.39.39 0 0 1-.361.005zm-.74-1.863a.365.365 0 0 1-.2.256.38.38 0 0 1 .021.143c.162.08.235.27.168.44a.36.36 0 0 1-.475.29.28.28 0 0 0 .498.162c.01-.154.118-.283.268-.32s.306.025.387.156.07.3-.03.417a.28.28 0 0 0 .296.295.346.346 0 0 1-.112-.452c.033-.11.108-.2.208-.254a2.71 2.71 0 0 0-.159-.775 1.2 1.2 0 0 0-.345-.208 3.67 3.67 0 0 0-.517-.149h.001zm-.125-.62a.312.312 0 0 1-.1.224c.133.054.22.183.22.327v.025a3.55 3.55 0 0 1 .526.151c.104.04.202.095.292.162-.168-.36-.457-.625-.95-.89zm-1.025 3.033l-.498-.347.604-.063.498.346-.604.064zm-.934-.203a.203.203 0 0 1 .001-.405c.112 0 .202.09.202.203s-.09.202-.203.202zm0-.045c.056 0 .108-.03.136-.08s.028-.11-.001-.157-.08-.078-.137-.078a.157.157 0 1 0 0 .315zM9.13 6.04a.157.157 0 1 0-.158-.157c0 .088.07.157.158.157zm0 .045c-.076.005-.148-.032-.188-.097s-.04-.146 0-.21.112-.102.188-.097c.106.007.19.096.19.203s-.082.195-.19.202zm1.95-.57a.158.158 0 1 0 0-.315.158.158 0 0 0 0 .315zm0 .045c-.112-.001-.202-.092-.2-.203s.092-.202.204-.202.202.092.2.204-.092.202-.203.202zm3.974.48a.157.157 0 1 0 0-.314.158.158 0 1 0 0 .315zm0 .046c-.076.005-.148-.032-.188-.097s-.04-.146 0-.21.112-.102.188-.097c.106.007.19.096.19.203s-.082.195-.19.202zm-4.908-.323l-.604-.064.5-.346.604.063-.5.347zm2.45-.457l-.505-.187-.504.187.504.188.505-.188zm.13 0l-.635.236-.634-.236.634-.235.634.235z" fill="#00539f"/></svg></svg>