<svg xmlns="http://www.w3.org/2000/svg" width="19.428" height="15.999" viewBox="0 0 17 14">
  <defs>
    <style>
      .cls-1 {
        fill: #2CAAE1;
        fill-rule: evenodd;
      }
    </style>
  </defs>
  <path id="Logo_Twitter" data-name="Logo Twitter" class="cls-1" d="M683.1,448.677a3.011,3.011,0,0,0-.294,2.53,4.034,4.034,0,0,0,1.324,2.083,0.962,0.962,0,0,1-.883,0c-0.468-.243-0.736-0.372-0.736-0.372a4.568,4.568,0,0,0,1.1,2.53,4.135,4.135,0,0,0,1.766.967,1.727,1.727,0,0,1-.883.223,2.7,2.7,0,0,1-.809-0.148,5.608,5.608,0,0,0,1.619,1.86,5.019,5.019,0,0,0,1.766.669,8.447,8.447,0,0,1-2.5,1.265,9.449,9.449,0,0,1-2.576.075,10.381,10.381,0,0,0,7.286,1.488c4.131-.749,6.069-3.685,7.212-6.1a7.566,7.566,0,0,0,.736-4.389,10.686,10.686,0,0,0,1.1-.893,5.243,5.243,0,0,0,.662-0.745,7.005,7.005,0,0,1-.957.3,9.226,9.226,0,0,1-1.1.149,7.046,7.046,0,0,0,1.031-.893,6.189,6.189,0,0,0,.589-1.042,4.192,4.192,0,0,1-1.1.521c-0.643.193-1.1,0.3-1.1,0.3a3.451,3.451,0,0,0-2.87-1.042,3.283,3.283,0,0,0-3.018,2.381,6.063,6.063,0,0,0,0,2.009A11.589,11.589,0,0,1,683.1,448.677Z" transform="translate(-682 -448)"/>
</svg>
