<svg xmlns="http://www.w3.org/2000/svg" width="151" height="26" viewBox="0 0 151 26">
    <path fill="#303030" fill-rule="nonzero" d="M48.1 7h-2c-2.8 0-4.4 1-5.2 2h-.1V0h-4v25.3h4v-1.7h.2c1.1 1.5 3.2 2.2 5.7 2.2H48c5.3 0 9.2-1.3 9.2-7.4v-3.7C57.1 9 54.6 7 48.1 7zm5 10.7c0 3.4-.9 4.9-5.6 4.9h-.9c-4.5 0-5.7-1.2-5.7-4.6v-3.5c0-4.2 2.7-4.3 6.3-4.3h.4c3.6 0 5.5.6 5.5 4.7v2.8zm52.2-10.2H100V5.8c0-1.6 1-2.8 3.2-2.8h4V0h-5.3C98.7 0 96 1.7 96 5.9v1.6h-2.1v3.2H96v15.2h4V10.7h5.3V7.5zM86.3 20v-9.3h5.3V7.5h-5.3V0h-4v7.5h-2.1v3.2h2.1V20c0 4.2 2.7 5.9 5.9 5.9h4.9v-3.2h-4c-2.1-.1-2.8-1.2-2.8-2.7zm41.9-16h4V0h-4v4zm0 21.8h4V7h-4v18.8zM70.4 7h-1.9c-4.1 0-9.2.7-9.2 7.1v4.4c0 6.2 4.3 7.2 8.1 7.2H71c4.8 0 7-1.5 7.6-4.2l-3.6-.9c-.6 1.6-2 2.1-5.1 2.1H69c-5.1 0-5.9-.6-5.9-4.7h15.8v-3.5c0-6.3-3.3-7.5-8.5-7.5zm-7.3 7.8v-.6c0-3.6 1.7-4 5.8-4h.8c4.6 0 5.2 1.2 5.2 3.5v1l-11.8.1zM115.7 7h-1.5c-5.4 0-7.7 1.7-7.9 4.1l3.8 1.3c.2-1.7 2.1-2.2 5.1-2.2 4.4 0 5.4.3 5.4 3.4v1.7h-.1c-1-1.3-2.4-1.7-5.8-1.7h-1.6c-5.1 0-8 1.3-8 5.3V20c0 3.3 1.3 5.7 6.6 5.7h3.9c3.8 0 4.2-.6 5-1.7h.1v1.7h4v-12c-.1-5.2-3.6-6.7-9-6.7zm5 13.2c0 1.8-1.2 2.4-5.9 2.4h-1.1c-4 0-4.5-.8-4.5-2.3v-1c0-1.8 1-2.4 4.3-2.4h1.8c3 0 5.4.6 5.4 2.6v.7zM144.3 7c-1.8 0-3.6.7-4.7 2.5h-.1V7h-3.8v18.8h4V14.5c0-2.3 1.3-4.3 4.4-4.3 2.2 0 3.3.6 3.5 1.2l2.5-1.7c-.6-1.7-2.3-2.7-5.8-2.7zM29.6.1H19.3v5.2h-5.5l10.7 12.4L35.1 5.2h-5.5V.1zM.2 20.5h5.5v5.2H16v-5.2h5.5L10.9 8.1.2 20.5z"/>
</svg>
