<svg 
 xmlns="http://www.w3.org/2000/svg"
 xmlns:xlink="http://www.w3.org/1999/xlink"
 width="13px" height="16px">
<path fill-rule="evenodd"  fill="rgb(30, 30, 30)"
 d="M12.587,6.900 C12.384,6.900 11.168,6.900 11.168,6.900 C11.168,6.900 11.168,4.400 11.168,3.800 C11.168,3.200 10.155,0.000 6.506,0.000 C2.857,0.000 1.945,3.200 1.945,3.800 C1.945,4.400 1.945,6.900 1.945,6.900 C1.945,6.900 0.830,6.900 0.627,6.900 C0.222,6.900 0.121,7.100 0.121,7.300 L0.121,15.300 C0.019,15.600 0.222,16.000 0.425,16.000 L12.384,16.000 C12.789,16.000 12.992,15.600 12.992,15.500 L12.992,7.500 C12.992,7.200 12.789,6.900 12.587,6.900 ZM9.445,6.900 L3.668,6.900 C3.668,6.900 3.668,4.700 3.668,4.100 C3.668,3.600 4.479,1.700 6.506,1.700 C8.533,1.700 9.445,3.600 9.445,4.200 C9.445,4.900 9.445,6.900 9.445,6.900 Z"/>
</svg>