<?xml version="1.0" encoding="UTF-8" standalone="no"?>
<svg width="13px" height="16px" viewBox="0 0 13 16" version="1.1" xmlns="http://www.w3.org/2000/svg" xmlns:xlink="http://www.w3.org/1999/xlink">
    <!-- Generator: sketchtool 40.3 (33839) - http://www.bohemiancoding.com/sketch -->
    <title>9F29F904-6C79-4055-9E01-B3C74E6D8D58</title>
    <desc>Created with sketchtool.</desc>
    <defs></defs>
    <g id="Page-1" stroke="none" stroke-width="1" fill="none" fill-rule="evenodd">
        <g id="D---Paddypower---Registration---States---Alt---Default" transform="translate(-905.000000, -879.000000)" fill="#FFFFFF">
            <g id="Form" transform="translate(216.000000, 66.000000)">
                <g id="Row-2" transform="translate(372.000000, 117.000000)">
                    <g id="Cta" transform="translate(140.000000, 686.000000)">
                        <g id="icon-lock" transform="translate(177.000000, 10.000000)">
                            <path d="M12.593688,6.90367261 L11.1641138,6.90367261 L11.1641138,3.80367261 C10.7812874,1.54644203 8.77190762,-0.0792902855 6.46737315,0.0036726143 C4.18009124,-0.0882110445 2.19428376,1.55402793 1.87238513,3.80367261 L1.87238513,6.90367261 L0.544563546,6.90367261 C0.421096145,6.87250998 0.290050382,6.90023006 0.190109743,6.97865014 C0.0901691035,7.05707022 0.0327466279,7.17723488 0.0347928947,7.30367261 L0.0347928947,15.3036726 C-0.0681682208,15.579661 0.0646778134,15.8873423 0.337028459,16.0036726 L12.3851455,16.0036726 C12.6792128,15.9922917 12.9296387,15.7878727 12.9976762,15.5036726 L12.9976762,7.50367261 C13.0219601,7.23424749 12.8537697,6.98445254 12.593688,6.90367261 L12.593688,6.90367261 Z M9.42827423,6.90367261 L3.60822472,6.90367261 L3.60822472,4.10367261 C3.85577363,2.72526382 5.05686533,1.71705451 6.46737315,1.70367261 C7.93116189,1.72295463 9.17433477,2.77261219 9.42827423,4.20367261 L9.42827423,6.90367261 L9.42827423,6.90367261 Z" id="Icon_Lock"></path>
                        </g>
                    </g>
                </g>
            </g>
        </g>
    </g>
</svg>