<?xml version="1.0" encoding="UTF-8" standalone="no"?>
<svg width="119px" height="64px" viewBox="0 0 119 64" version="1.1" xmlns="http://www.w3.org/2000/svg" xmlns:xlink="http://www.w3.org/1999/xlink">
    <!-- Generator: sketchtool 40.3 (33839) - http://www.bohemiancoding.com/sketch -->
    <title>4D2E36E0-1FC4-4E15-A2B7-C9252E5C3976</title>
    <desc>Created with sketchtool.</desc>
    <defs></defs>
    <g id="Page-1" stroke="none" stroke-width="1" fill="none" fill-rule="evenodd">
        <g id="D---Paddypower---Registration---States---Alt---Default" transform="translate(-1033.000000, -546.000000)">
            <g id="Form" transform="translate(216.000000, 66.000000)">
                <g id="Row-3" transform="translate(744.000000, 0.000000)">
                    <g id="Credentials" transform="translate(0.000000, 432.000000)">
                        <g id="Logo-Norton-Verified" transform="translate(73.000000, 48.000000)">
                            <g id="Logo_Norton_Verified">
                                <path d="M114.37,8.258 L114.37,8.764 L113.63,8.764 L113.63,11.251 L113.06,11.251 L113.06,8.764 L112.33,8.764 L112.33,8.258 L114.37,8.258 L114.37,8.258 Z M114.78,11.251 L114.78,8.258 L115.56,8.258 L116.07,10.218 L116.6,8.258 L117.38,8.258 L117.38,11.251 L116.91,11.251 L116.91,8.91 L116.9,8.91 L116.3,11.251 L115.87,11.251 L115.27,8.91 L115.25,8.91 L115.25,11.251 L114.78,11.251 L114.78,11.251 Z M47.19,40.193 L47.89,39.093 C48.6056775,39.6204923 49.470934,39.9059919 50.36,39.908 C51.37,39.908 52,39.447 52,38.646 C52,37.725 51.21,37.481 49.91,37.027 C48.74,36.615 47.6,36.027 47.6,34.367 C47.6,32.814 48.82,31.967 50.46,31.967 C51.3456544,31.9304373 52.2243219,32.1379965 53,32.567 L52.44,33.733 C51.8388441,33.4168912 51.169191,33.2534272 50.49,33.257 C49.57,33.257 49.02,33.603 49.02,34.332 C49.02,35.187 49.66,35.404 50.85,35.799 C52.1,36.205 53.47,36.784 53.47,38.621 C53.47,40.175 52.37,41.199 50.38,41.199 C49.2340846,41.2254068 48.1119058,40.8701088 47.19,40.189 L47.19,40.193 Z M56.13,32.11 L61.45,32.11 L61.45,33.35 L57.64,33.35 L57.64,35.8 L60.65,35.8 L60.65,37.013 L57.64,37.013 L57.64,39.844 L61.68,39.844 L61.68,41.082 L56.13,41.082 L56.13,32.111 L56.13,32.11 Z M63.84,36.603 C63.84,33.985 65.09,31.97 67.58,31.97 C68.5719671,31.9162168 69.5350438,32.3139454 70.2,33.052 L69.31,34.076 C68.8847419,33.5740128 68.2578619,33.287701 67.6,33.295 C66.14,33.295 65.46,34.495 65.46,36.718 C65.46,38.802 66.18,39.858 67.62,39.858 C68.3445456,39.8262505 69.0195954,39.4814278 69.47,38.913 L70.36,39.913 C69.6994259,40.7598746 68.6734189,41.2394213 67.6,41.203 C65.03,41.203 63.84,39.236 63.84,36.603 L63.84,36.603 Z M72.82,37.648 L72.82,32.11 L74.34,32.11 L74.34,37.9 C74.34,39.133 74.65,39.941 75.94,39.941 C77.23,39.941 77.55,39.133 77.55,37.9 L77.55,32.115 L79.08,32.115 L79.08,37.653 C79.08,39.876 78.23,41.204 75.93,41.204 C73.67,41.204 72.82,39.876 72.82,37.653 L72.82,37.648 Z M88.41,41.088 L86.75,41.088 L85.04,37.288 L83.63,37.288 L83.63,41.088 L82.12,41.088 L82.12,32.115 L85.03,32.115 C86.83,32.115 88.24,32.765 88.24,34.731 C88.2812479,35.8055378 87.583621,36.7694187 86.55,37.066 L88.41,41.088 Z M84.97,36.111 C86.11,36.111 86.69,35.741 86.69,34.704 C86.69,33.704 86.1,33.353 85.06,33.353 L83.63,33.353 L83.63,36.111 L84.97,36.111 L84.97,36.111 Z M90.99,32.111 L96.31,32.111 L96.31,33.351 L92.5,33.351 L92.5,35.8 L95.5,35.8 L95.5,37.013 L92.5,37.013 L92.5,39.844 L96.53,39.844 L96.53,41.082 L90.99,41.082 L90.99,32.111 L90.99,32.111 Z M99.09,32.111 L101.32,32.111 C104.23,32.111 105.63,33.694 105.63,36.564 C105.63,39.489 104.2,41.084 101.39,41.084 L99.09,41.084 L99.09,32.111 L99.09,32.111 Z M101.23,39.844 C103.31,39.844 104.03,38.878 104.03,36.564 C104.03,34.535 103.47,33.349 101.42,33.349 L100.6,33.349 L100.6,39.849 L101.23,39.849 L101.23,39.844 Z M39.66,8.25 L38.08,8.25 L38.08,9.821 L39.66,9.821 L39.66,8.25 L39.66,8.25 Z M42.75,8.25 L41.19,8.25 L41.19,9.821 L42.75,9.821 L42.75,8.25 L42.75,8.25 Z M9.35,57.25 L10.52,57.25 L10.52,58.111 C10.8947853,57.510414 11.5520703,57.144752 12.26,57.143 C12.9387936,57.1614394 13.5799449,57.4589652 14.0322741,57.9654226 C14.4846034,58.4718799 14.7080765,59.1424441 14.65,59.819 L14.65,59.838 C14.7101797,60.5150311 14.4874411,61.1867744 14.0346746,61.6937213 C13.581908,62.2006683 12.9395025,62.4975968 12.26,62.514 C11.565542,62.5176602 10.9141834,62.1777559 10.52,61.606 L10.52,63.971 L9.35,63.971 L9.35,57.25 L9.35,57.25 Z M13.46,59.838 L13.46,59.819 C13.4947524,59.4026916 13.3570861,58.990369 13.079192,58.6784471 C12.8012979,58.3665252 12.4075429,58.1823544 11.99,58.169 C11.5699268,58.1822297 11.1731789,58.3652596 10.890467,58.6762427 C10.6077551,58.9872258 10.4632533,59.3995704 10.49,59.819 L10.49,59.838 C10.4612533,60.2581116 10.605006,60.6717881 10.8880765,60.9835431 C11.1711471,61.2952981 11.5690717,61.478189 11.99,61.49 C12.4095532,61.4813516 12.8065282,61.2982713 13.0854882,60.9847734 C13.3644482,60.6712755 13.5001611,60.2557161 13.46,59.838 L13.46,59.838 Z M15.61,59.858 L15.61,59.838 C15.6095745,59.1135241 15.9009618,58.41941 16.4183919,57.9123285 C16.935822,57.405247 17.6356805,57.1279402 18.36,57.143 C19.079828,57.1257089 19.7760426,57.4003178 20.2902448,57.9043489 C20.804447,58.4083801 21.0929085,59.0989702 21.09,59.819 L21.09,59.838 C21.0888246,60.561259 20.7966652,61.2536218 20.279352,61.7590839 C19.7620387,62.264546 19.063092,62.5405838 18.34,62.525 C17.6215776,62.542805 16.9264348,62.2696008 16.4123807,61.7674095 C15.8983266,61.2652182 15.6089701,60.5766423 15.61,59.858 L15.61,59.858 Z M19.91,59.858 L19.91,59.838 C19.9292724,59.4076886 19.7730229,58.9879897 19.4770434,58.6750433 C19.181064,58.3620968 18.7707169,58.1827191 18.34,58.178 C17.9120908,58.1754914 17.5023312,58.3506813 17.208497,58.6617665 C16.9146627,58.9728516 16.7631093,59.3919292 16.79,59.819 L16.79,59.838 C16.773262,60.2678253 16.9302987,60.6862858 17.2256836,60.99898 C17.5210686,61.3116741 17.9299186,61.4922604 18.36,61.5 C18.7875335,61.5007538 19.1963925,61.3248831 19.4898697,61.0139867 C19.7833469,60.7030902 19.9353769,60.2847804 19.91,59.858 L19.91,59.858 Z M21.66,57.25 L22.86,57.25 L23.89,60.787 L25.03,57.231 L26.03,57.231 L27.18,60.787 L28.23,57.25 L29.41,57.25 L27.72,62.45 L26.67,62.45 L25.53,58.924 L24.37,62.45 L23.32,62.45 L21.66,57.25 Z M30.01,59.85 L30.01,59.83 C29.9743665,59.1377205 30.2215501,58.4606751 30.6948393,57.9541991 C31.1681286,57.447723 31.826896,57.1552925 32.52,57.144 C33.2274298,57.1485061 33.8996046,57.4534775 34.368894,57.9828588 C34.8381834,58.5122402 35.0603541,59.2161341 34.98,59.919 C34.98,60.026 34.97,60.133 34.96,60.25 L31.19,60.25 C31.2534855,61.0080446 31.8996956,61.5834793 32.66,61.559 C33.1929606,61.5627594 33.7022286,61.3390452 34.06,60.944 L34.75,61.559 C34.2396967,62.1919456 33.4626906,62.5497384 32.65,62.526 C31.9376445,62.5457312 31.2490543,62.2689099 30.7485736,61.7616045 C30.248093,61.2542991 29.9806229,60.5620229 30.01,59.85 L30.01,59.85 Z M33.81,59.469 C33.8234176,58.736196 33.2427053,58.1300216 32.51,58.112 C31.7775797,58.1414684 31.1947446,58.7361354 31.18,59.469 L33.81,59.469 L33.81,59.469 Z M36.2,57.251 L37.38,57.251 L37.38,58.413 C37.63195,57.6298974 38.3783594,57.1135625 39.2,57.154 L39.2,58.404 L39.13,58.404 C38.1,58.404 37.38,59.078 37.38,60.446 L37.38,62.409 L36.2,62.409 L36.2,57.25 L36.2,57.251 Z M39.88,59.851 L39.88,59.831 C39.8443665,59.1387205 40.0915501,58.4616751 40.5648393,57.9551991 C41.0381286,57.448723 41.696896,57.1562925 42.39,57.145 C43.0980682,57.147604 43.7714279,57.4520208 44.2411344,57.9818727 C44.710841,58.5117247 44.932319,59.2167284 44.85,59.92 C44.85,60.027 44.84,60.134 44.83,60.251 L41.06,60.251 C41.1284966,61.010591 41.7777306,61.5848122 42.54,61.56 C43.0696144,61.5615472 43.5749377,61.3379689 43.93,60.945 L44.62,61.56 C44.1096967,62.1929456 43.3326906,62.5507384 42.52,62.527 C41.8076445,62.5467312 41.1190543,62.2699099 40.6185736,61.7626045 C40.118093,61.2552991 39.8506229,60.5630229 39.88,59.851 L39.88,59.851 Z M43.68,59.47 C43.6880418,59.1175233 43.5554844,58.7763358 43.3115852,58.5217426 C43.0676861,58.2671494 42.7324973,58.1200819 42.38,58.113 C41.649092,58.1458639 41.0681698,58.7385792 41.05,59.47 L43.68,59.47 L43.68,59.47 Z M45.81,59.84 L45.81,59.821 C45.7480891,59.145254 45.968865,58.4740509 46.4198276,57.9670022 C46.8707903,57.4599535 47.511646,57.1623639 48.19,57.145 C48.8866474,57.1435753 49.5400492,57.4825975 49.94,58.053 L49.94,55.279 L51.12,55.279 L51.12,62.41 L49.94,62.41 L49.94,61.55 C49.5621698,62.1521189 48.9008456,62.5171699 48.19,62.516 C47.5126647,62.4957295 46.8736024,62.1972906 46.4232629,61.6909425 C45.9729235,61.1845945 45.7510946,60.5150734 45.81,59.84 L45.81,59.84 Z M49.96,59.84 L49.96,59.821 C49.9887225,59.4027644 49.846255,58.990812 49.5652906,58.679677 C49.2843263,58.368542 48.8889889,58.1849386 48.47,58.171 C48.0491772,58.1772426 47.6500823,58.3589471 47.3690606,58.6722483 C47.088039,58.9855495 46.950628,59.4019766 46.99,59.821 L46.99,59.84 C46.9569746,60.2577776 47.0965367,60.6708463 47.3761765,60.9829847 C47.6558163,61.2951232 48.0511183,61.4790786 48.47,61.492 C48.8886788,61.4761525 49.2831642,61.2917011 49.5637789,60.9805766 C49.8443936,60.6694521 49.9872959,60.2580885 49.96,59.84 L49.96,59.84 Z M56.67,61.608 L56.67,62.408 L55.5,62.408 L55.5,55.277 L56.67,55.277 L56.67,58.111 C57.0447853,57.510414 57.7020703,57.144752 58.41,57.143 C59.0898498,57.1607609 59.7323807,57.4577118 60.1864527,57.9640021 C60.6405246,58.4702923 60.8660575,59.1412326 60.81,59.819 L60.81,59.838 C60.8681519,60.5162467 60.6433484,61.1883627 60.1888403,61.6951393 C59.7343321,62.2019158 59.0905532,62.4982692 58.41,62.514 C57.715542,62.5176602 57.0641834,62.1777559 56.67,61.606 L56.67,61.608 Z M59.61,59.838 L59.61,59.819 C59.6447524,59.4026916 59.5070861,58.990369 59.229192,58.6784471 C58.9512979,58.3665252 58.5575429,58.1823544 58.14,58.169 C57.7199268,58.1822297 57.3231789,58.3652596 57.040467,58.6762427 C56.7577551,58.9872258 56.6132533,59.3995704 56.64,59.819 L56.64,59.838 C56.6112533,60.2581116 56.755006,60.6717881 57.0380765,60.9835431 C57.3211471,61.2952981 57.7190717,61.478189 58.14,61.49 C58.5595532,61.4813516 58.9565282,61.2982713 59.2354882,60.9847734 C59.5144482,60.6712755 59.6501611,60.2557161 59.61,59.838 L59.61,59.838 Z M61.61,63.687 L62,62.808 C62.2128731,62.9323047 62.4535882,63.0010805 62.7,63.008 C63.0522081,63.0048386 63.3533775,62.7538642 63.42,62.408 L61.29,57.25 L62.54,57.25 L64,61.079 L65.33,57.25 L66.56,57.25 L64.51,62.55 C64.11,63.605 63.65,63.996 62.82,63.996 C62.3959791,64.0013721 61.9782289,63.8933095 61.61,63.683 L61.61,63.687 Z" id="Shape" fill="#A7A9AB"></path>
                                <path d="M70.03,55.57 L71.35,55.57 L73.41,60.825 L75.45,55.57 L76.74,55.57 L73.91,62.456 L72.86,62.456 L70.03,55.57 Z M76.98,59.849 L76.98,59.829 C76.9443665,59.1367205 77.1915501,58.4596751 77.6648393,57.9531991 C78.1381286,57.446723 78.796896,57.1542925 79.49,57.143 C80.1980682,57.145604 80.8714279,57.4500208 81.3411344,57.9798727 C81.810841,58.5097247 82.032319,59.2147284 81.95,59.918 C81.95,60.025 81.94,60.132 81.93,60.249 L78.16,60.249 C78.2284966,61.008591 78.8777306,61.5828122 79.64,61.558 C80.1696144,61.5595472 80.6749377,61.3359689 81.03,60.943 L81.72,61.558 C81.2096967,62.1909456 80.4326906,62.5487384 79.62,62.525 C78.9076445,62.5447312 78.2190543,62.2679099 77.7185736,61.7606045 C77.218093,61.2532991 76.9506229,60.5610229 76.98,59.849 L76.98,59.849 Z M80.78,59.468 C80.7880418,59.1155233 80.6554844,58.7743358 80.4115852,58.5197426 C80.1676861,58.2651494 79.8324973,58.1180819 79.48,58.111 C78.749092,58.1438639 78.1681698,58.7365792 78.15,59.468 L80.78,59.468 L80.78,59.468 Z M83.18,57.25 L84.35,57.25 L84.35,58.412 C84.6045779,57.6308515 85.3492611,57.1157108 86.17,57.153 L86.17,58.403 L86.1,58.403 C85.07,58.403 84.35,59.077 84.35,60.445 L84.35,62.408 L83.18,62.408 L83.18,57.25 L83.18,57.25 Z M87.13,55.337 L88.4,55.337 L88.4,56.459 L87.13,56.459 L87.13,55.337 L87.13,55.337 Z M87.18,57.25 L88.36,57.25 L88.36,62.408 L87.18,62.408 L87.18,57.25 L87.18,57.25 Z M89.58,61.412 L90.3,60.552 C90.8751699,61.1144356 91.6455747,61.4326307 92.45,61.44 C92.7245939,61.4981413 93.0109813,61.4382039 93.2392142,61.2748272 C93.4674471,61.1114505 93.6165117,60.8596768 93.65,60.581 L93.65,60.561 C93.65,60.074 93.38,59.809 92.12,59.517 C90.67,59.165 89.85,58.736 89.85,57.475 L89.85,57.455 C89.8745975,56.8749271 90.1399505,56.3313805 90.5821876,55.9551943 C91.0244246,55.5790081 91.60349,55.4042554 92.18,55.473 C93.0796626,55.4552064 93.9559328,55.7603045 94.65,56.333 L94.01,57.24 C93.485871,56.8116824 92.8363836,56.5659304 92.16,56.54 C91.9041285,56.4919238 91.6397655,56.5517713 91.4295482,56.7053625 C91.2193309,56.8589537 91.0819659,57.0926209 91.05,57.351 L91.05,57.371 C91.05,57.898 91.36,58.133 92.66,58.445 C94.1,58.797 94.85,59.314 94.85,60.445 L94.85,60.463 C94.85,61.744 93.85,62.505 92.42,62.505 C91.3698451,62.5092611 90.3563408,62.1192047 89.58,61.412 L89.58,61.412 Z M96.15,55.337 L97.41,55.337 L97.41,56.459 L96.15,56.459 L96.15,55.337 L96.15,55.337 Z M96.2,57.25 L97.37,57.25 L97.37,62.408 L96.2,62.408 L96.2,57.25 L96.2,57.25 Z M98.85,63.375 L99.29,62.487 C99.8343614,62.842028 100.470097,63.0313591 101.12,63.032 C101.558444,63.0918128 101.999963,62.946001 102.316552,62.6368375 C102.633142,62.327674 102.789391,61.8897405 102.74,61.45 L102.74,61.05 C102.338693,61.6496841 101.661518,62.0059534 100.94,61.997 C100.304333,62.0044368 99.6935792,61.7501442 99.2510204,61.293779 C98.8084615,60.8374139 98.5730452,60.2191385 98.6,59.584 L98.6,59.564 C98.572848,58.9279718 98.8079071,58.3086698 99.2502396,57.8508368 C99.6925721,57.3930037 100.303414,57.1367619 100.94,57.142 C101.643156,57.1307521 102.308977,57.4577107 102.73,58.021 L102.73,57.25 L103.91,57.25 L103.91,61.35 C103.964195,62.0588177 103.729801,62.7594768 103.26,63.293 C102.677086,63.7959764 101.917673,64.045755 101.15,63.987 C100.341495,63.9963789 99.5459258,63.7836507 98.85,63.372 L98.85,63.375 Z M102.75,59.582 L102.75,59.562 C102.747387,59.1716257 102.586063,58.7991147 102.30313,58.5301395 C102.020197,58.2611643 101.640007,58.1188763 101.25,58.136 C100.86464,58.1164858 100.488509,58.2580322 100.211622,58.526764 C99.9347353,58.7954957 99.7820112,59.1672291 99.79,59.553 L99.79,59.572 C99.7824638,59.9584285 99.9350161,60.3307806 100.211515,60.6008403 C100.488014,60.8709 100.863856,61.0146378 101.25,60.998 C101.638066,61.014232 102.016233,60.8730112 102.298671,60.6063893 C102.58111,60.3397674 102.743866,59.9703569 102.75,59.582 L102.75,59.582 Z M105.42,57.247 L106.6,57.247 L106.6,58.047 C106.932439,57.4798413 107.542615,57.1335664 108.2,57.139 C108.719325,57.1168561 109.222082,57.3243662 109.574602,57.706359 C109.927122,58.0883518 110.093682,58.6061189 110.03,59.122 L110.03,62.404 L108.85,62.404 L108.85,59.473 C108.906493,59.1547242 108.81649,58.8279408 108.605005,58.5834719 C108.39352,58.339003 108.083093,58.2029038 107.76,58.213 C107.428613,58.2056706 107.110365,58.3425605 106.887778,58.5881738 C106.665191,58.8337872 106.560189,59.1639315 106.6,59.493 L106.6,62.404 L105.42,62.404 L105.42,57.25 L105.42,57.247 Z" id="Shape" fill="#A30046"></path>
                                <path d="M99.08,48.271 L22.58,48.271 C11.5859117,48.1932722 2.71444522,39.2588631 2.71444522,28.2645 C2.71444522,17.2701369 11.5859117,8.3357278 22.58,8.258 L99.08,8.258 C110.074088,8.3357278 118.945555,17.2701369 118.945555,28.2645 C118.945555,39.2588631 110.074088,48.1932722 99.08,48.271 L99.08,48.271 Z M22.58,9.828 C12.3980784,9.828 4.144,18.0820784 4.144,28.264 C4.144,38.4459216 12.3980784,46.7 22.58,46.7 L99.08,46.7 C109.261922,46.7 117.516,38.4459216 117.516,28.264 C117.516,18.0820784 109.261922,9.828 99.08,9.828 L22.58,9.828 L22.58,9.828 Z" id="Shape" fill="#C6C8CA"></path>
                                <path d="M22.49,49.851 C13.7507379,49.8898667 5.85034741,44.655429 2.47891765,36.5925714 C-0.892512104,28.5297137 0.930339811,19.2295675 7.09606153,13.0360154 C13.2617832,6.84246331 22.5536259,4.97774629 30.6315851,8.31283045 C38.7095444,11.6479146 43.9795087,19.5246515 43.98,28.264 C43.9927514,40.153604 34.3795408,49.8102059 22.49,49.851 L22.49,49.851 Z M22.49,13.507 C15.467769,13.4941192 9.41466552,18.4442603 8.03348181,25.329333 C6.6522981,32.2144057 10.3278442,39.1161678 16.8117224,41.8126873 C23.2956006,44.5092068 30.7813451,42.2492096 34.6897915,36.4151765 C38.5982378,30.5811435 37.8404582,22.7984878 32.88,17.828 C30.1341565,15.0557469 26.3919209,13.4994235 22.49,13.507 L22.49,13.507 Z M47.58,3.355 L45.9,3.355 L45.9,5.038 L47.58,5.038 L47.58,3.355 L47.58,3.355 Z M47.58,0 L45.9,0 L45.9,1.687 L47.58,1.687 L47.58,0 L47.58,0 Z M42.75,5.026 L41.19,5.026 L41.19,6.669 L42.75,6.669 L42.75,5.026 L42.75,5.026 Z" id="Shape" fill="#FEC10D"></path>
                                <path d="M89.91,17.069 C87.7232149,17.056851 85.7449903,18.364788 84.8997123,20.3816375 C84.0544342,22.398487 84.5090009,24.7260266 86.0510021,26.2766424 C87.5930033,27.8272581 89.9179744,28.2947844 91.9395016,27.4607553 C93.9610289,26.6267262 95.2799663,24.6558189 95.28,22.469 C95.2844349,19.49653 92.8824486,17.0811247 89.91,17.069 L89.91,17.069 Z M89.91,25.243 C88.7876604,25.2478586 87.7731479,24.5754634 87.3403698,23.539909 C86.9075917,22.5043546 87.1419644,21.3100262 87.9340058,20.5148281 C88.7260473,19.7196299 89.919434,19.4805086 90.9567016,19.9091643 C91.9939692,20.33782 92.6703944,21.34965 92.67,22.472 C92.6726579,23.2058206 92.3830787,23.9105115 91.8652188,24.4304354 C91.3473589,24.9503592 90.6438253,25.242739 89.91,25.243 L89.91,25.243 Z M65.24,17.069 C63.0541021,17.060904 61.0789363,18.3714263 60.2368136,20.3886136 C59.3946909,22.405801 59.8517423,24.73171 61.3945458,26.2802488 C62.9373493,27.8287877 65.2615464,28.2944663 67.2818446,27.4598343 C69.3021427,26.6252024 70.619985,24.6549129 70.62,22.469 C70.6244233,19.4926384 68.2163576,17.0756207 65.24,17.069 L65.24,17.069 Z M65.24,25.243 C64.1176604,25.2478586 63.1031479,24.5754634 62.6703698,23.539909 C62.2375917,22.5043546 62.4719644,21.3100262 63.2640058,20.5148281 C64.0560473,19.7196299 65.249434,19.4805086 66.2867016,19.9091643 C67.3239692,20.33782 68.0003944,21.34965 68,22.472 C68.0016611,23.9987762 66.7667707,25.2385883 65.24,25.243 L65.24,25.243 Z M84.18,25.394 C83.8343071,25.4962081 83.479169,25.5632153 83.12,25.594 C82.2,25.594 82,25.276 82,24.394 L82,19.4 L84.2,19.4 L84.2,17.314 L82,17.314 L82,14.366 L79.53,14.366 L79.01,17.314 L77.29,17.314 L77.29,17.314 L77.15,17.314 C75.7507035,17.3677476 74.5134018,18.2381659 73.99,19.537 L73.13,17.312 L71.36,17.312 L71.36,27.679 L74.39,27.679 L74.39,23.169 C74.39,20.896 75.73,19.443 77.31,19.398 L78.97,19.398 L78.97,24.552 C78.97,26.977 80.21,27.879 82.22,27.879 C83.0088481,27.8792868 83.7924642,27.7509359 84.54,27.499 L84.18,25.394 Z M98.96,20.594 L98.96,27.681 L96.01,27.681 L96.01,17.312 L97.8,17.312 L98.4,18.896 L98.96,20.594 Z M98.39,18.906 C99.247982,17.7991163 100.550698,17.127266 101.95,17.07 C104.4,17.07 105.41,19.037 105.41,20.861 L105.41,27.679 L102.38,27.679 L102.38,20.948 C102.370863,20.5572099 102.199906,20.1877499 101.907944,19.9278286 C101.615983,19.6679074 101.229222,19.5408531 100.84,19.577 C100.093945,19.6177048 99.4048078,19.9886658 98.96,20.589 L98.39,18.906 Z M48.03,13.56 L51.41,13.56 L56.05,22.438 L56.05,13.56 L58.85,13.56 L58.85,27.681 L55.79,27.681 L50.83,17.919 L50.83,27.681 L48.03,27.681 L48.03,13.56 L48.03,13.56 Z M44.5,6.669 L42.75,6.669 L42.75,8.253 L44.5,8.253 L44.5,6.669 L44.5,6.669 Z M36.51,8.253 L38.08,8.253 L38.08,6.747 L36.51,6.747 L36.51,8.253 L36.51,8.253 Z M45.9,1.687 L44.24,1.687 L44.24,3.355 L45.9,3.355 L45.9,1.687 L45.9,1.687 Z M44.24,3.355 L41.19,3.355 L41.19,5.026 L44.24,5.026 L44.24,3.355 L44.24,3.355 Z M39.66,8.255 L41.19,8.255 L41.19,5.028 L39.66,5.028 L39.66,8.255 L39.66,8.255 Z M39.66,9.826 L39.66,11.41 L38.08,11.41 L38.08,9.826 L35.47,9.826 L35.47,10.967 L34.06,10.967 L34.06,12.375 L35.63,12.375 L35.63,13.943 L34.06,13.943 L34.06,12.375 L32.4,12.375 L32.4,14.835 L30.82,14.835 L30.82,16.4 L29.78,16.4 L29.78,17.977 L28.63,17.977 C26.566852,21.3140159 24.7261854,24.7835554 23.12,28.363 C19.6,23.435 16.86,21.482 14.71,20.775 C13.54,20.424 12.14,21.696 14.07,23.697 C18.51,28.597 19.91,32.654 21.25,35.89 C21.97,37.596 25.16,37.862 25.81,36.124 C27.2490257,32.1790597 29.1595441,28.4224904 31.5,24.936 L31.5,23.18 L32.75,23.18 L32.75,21.6 L34.06,21.6 L34.06,19.765 L35.63,19.765 L35.63,18 L34.04,18 L34.04,16.392 L35.63,16.392 L35.63,18 L37.19,18 L37.19,16.4 L38.43,16.4 L38.43,14.478 L39.84,14.478 L39.84,13.157 L41.19,13.157 L41.19,9.82 L39.66,9.82 L39.66,9.826 Z" id="Shape" fill="#231F20"></path>
                            </g>
                        </g>
                    </g>
                </g>
            </g>
        </g>
    </g>
</svg>